%TF.GenerationSoftware,KiCad,Pcbnew,9.0.1*%
%TF.CreationDate,2025-04-10T12:08:20+02:00*%
%TF.ProjectId,MCU_datalogger,4d43555f-6461-4746-916c-6f676765722e,rev?*%
%TF.SameCoordinates,Original*%
%TF.FileFunction,Legend,Top*%
%TF.FilePolarity,Positive*%
%FSLAX46Y46*%
G04 Gerber Fmt 4.6, Leading zero omitted, Abs format (unit mm)*
G04 Created by KiCad (PCBNEW 9.0.1) date 2025-04-10 12:08:20*
%MOMM*%
%LPD*%
G01*
G04 APERTURE LIST*
%ADD10C,0.150000*%
%ADD11C,0.120000*%
%ADD12C,0.127000*%
%ADD13C,0.200000*%
G04 APERTURE END LIST*
D10*
X168666666Y-99754819D02*
X168666666Y-100469104D01*
X168666666Y-100469104D02*
X168619047Y-100611961D01*
X168619047Y-100611961D02*
X168523809Y-100707200D01*
X168523809Y-100707200D02*
X168380952Y-100754819D01*
X168380952Y-100754819D02*
X168285714Y-100754819D01*
X169666666Y-100754819D02*
X169095238Y-100754819D01*
X169380952Y-100754819D02*
X169380952Y-99754819D01*
X169380952Y-99754819D02*
X169285714Y-99897676D01*
X169285714Y-99897676D02*
X169190476Y-99992914D01*
X169190476Y-99992914D02*
X169095238Y-100040533D01*
X138233333Y-107954819D02*
X137900000Y-107478628D01*
X137661905Y-107954819D02*
X137661905Y-106954819D01*
X137661905Y-106954819D02*
X138042857Y-106954819D01*
X138042857Y-106954819D02*
X138138095Y-107002438D01*
X138138095Y-107002438D02*
X138185714Y-107050057D01*
X138185714Y-107050057D02*
X138233333Y-107145295D01*
X138233333Y-107145295D02*
X138233333Y-107288152D01*
X138233333Y-107288152D02*
X138185714Y-107383390D01*
X138185714Y-107383390D02*
X138138095Y-107431009D01*
X138138095Y-107431009D02*
X138042857Y-107478628D01*
X138042857Y-107478628D02*
X137661905Y-107478628D01*
X139185714Y-107954819D02*
X138614286Y-107954819D01*
X138900000Y-107954819D02*
X138900000Y-106954819D01*
X138900000Y-106954819D02*
X138804762Y-107097676D01*
X138804762Y-107097676D02*
X138709524Y-107192914D01*
X138709524Y-107192914D02*
X138614286Y-107240533D01*
X147432406Y-90112063D02*
X147432406Y-90921586D01*
X147432406Y-90921586D02*
X147480025Y-91016824D01*
X147480025Y-91016824D02*
X147527644Y-91064444D01*
X147527644Y-91064444D02*
X147622882Y-91112063D01*
X147622882Y-91112063D02*
X147813358Y-91112063D01*
X147813358Y-91112063D02*
X147908596Y-91064444D01*
X147908596Y-91064444D02*
X147956215Y-91016824D01*
X147956215Y-91016824D02*
X148003834Y-90921586D01*
X148003834Y-90921586D02*
X148003834Y-90112063D01*
X148908596Y-90445396D02*
X148908596Y-91112063D01*
X148670501Y-90064444D02*
X148432406Y-90778729D01*
X148432406Y-90778729D02*
X149051453Y-90778729D01*
X144613333Y-87259580D02*
X144565714Y-87307200D01*
X144565714Y-87307200D02*
X144422857Y-87354819D01*
X144422857Y-87354819D02*
X144327619Y-87354819D01*
X144327619Y-87354819D02*
X144184762Y-87307200D01*
X144184762Y-87307200D02*
X144089524Y-87211961D01*
X144089524Y-87211961D02*
X144041905Y-87116723D01*
X144041905Y-87116723D02*
X143994286Y-86926247D01*
X143994286Y-86926247D02*
X143994286Y-86783390D01*
X143994286Y-86783390D02*
X144041905Y-86592914D01*
X144041905Y-86592914D02*
X144089524Y-86497676D01*
X144089524Y-86497676D02*
X144184762Y-86402438D01*
X144184762Y-86402438D02*
X144327619Y-86354819D01*
X144327619Y-86354819D02*
X144422857Y-86354819D01*
X144422857Y-86354819D02*
X144565714Y-86402438D01*
X144565714Y-86402438D02*
X144613333Y-86450057D01*
X145565714Y-87354819D02*
X144994286Y-87354819D01*
X145280000Y-87354819D02*
X145280000Y-86354819D01*
X145280000Y-86354819D02*
X145184762Y-86497676D01*
X145184762Y-86497676D02*
X145089524Y-86592914D01*
X145089524Y-86592914D02*
X144994286Y-86640533D01*
X131078628Y-105376190D02*
X131554819Y-105376190D01*
X130554819Y-105709523D02*
X131078628Y-105376190D01*
X131078628Y-105376190D02*
X130554819Y-105042857D01*
X131554819Y-104185714D02*
X131554819Y-104757142D01*
X131554819Y-104471428D02*
X130554819Y-104471428D01*
X130554819Y-104471428D02*
X130697676Y-104566666D01*
X130697676Y-104566666D02*
X130792914Y-104661904D01*
X130792914Y-104661904D02*
X130840533Y-104757142D01*
X127538095Y-88654819D02*
X127538095Y-87654819D01*
X127538095Y-88131009D02*
X128109523Y-88131009D01*
X128109523Y-88654819D02*
X128109523Y-87654819D01*
X129109523Y-88654819D02*
X128538095Y-88654819D01*
X128823809Y-88654819D02*
X128823809Y-87654819D01*
X128823809Y-87654819D02*
X128728571Y-87797676D01*
X128728571Y-87797676D02*
X128633333Y-87892914D01*
X128633333Y-87892914D02*
X128538095Y-87940533D01*
X156682853Y-107859580D02*
X156635234Y-107907200D01*
X156635234Y-107907200D02*
X156492377Y-107954819D01*
X156492377Y-107954819D02*
X156397139Y-107954819D01*
X156397139Y-107954819D02*
X156254282Y-107907200D01*
X156254282Y-107907200D02*
X156159044Y-107811961D01*
X156159044Y-107811961D02*
X156111425Y-107716723D01*
X156111425Y-107716723D02*
X156063806Y-107526247D01*
X156063806Y-107526247D02*
X156063806Y-107383390D01*
X156063806Y-107383390D02*
X156111425Y-107192914D01*
X156111425Y-107192914D02*
X156159044Y-107097676D01*
X156159044Y-107097676D02*
X156254282Y-107002438D01*
X156254282Y-107002438D02*
X156397139Y-106954819D01*
X156397139Y-106954819D02*
X156492377Y-106954819D01*
X156492377Y-106954819D02*
X156635234Y-107002438D01*
X156635234Y-107002438D02*
X156682853Y-107050057D01*
X157063806Y-107050057D02*
X157111425Y-107002438D01*
X157111425Y-107002438D02*
X157206663Y-106954819D01*
X157206663Y-106954819D02*
X157444758Y-106954819D01*
X157444758Y-106954819D02*
X157539996Y-107002438D01*
X157539996Y-107002438D02*
X157587615Y-107050057D01*
X157587615Y-107050057D02*
X157635234Y-107145295D01*
X157635234Y-107145295D02*
X157635234Y-107240533D01*
X157635234Y-107240533D02*
X157587615Y-107383390D01*
X157587615Y-107383390D02*
X157016187Y-107954819D01*
X157016187Y-107954819D02*
X157635234Y-107954819D01*
X156833333Y-96854819D02*
X156500000Y-96378628D01*
X156261905Y-96854819D02*
X156261905Y-95854819D01*
X156261905Y-95854819D02*
X156642857Y-95854819D01*
X156642857Y-95854819D02*
X156738095Y-95902438D01*
X156738095Y-95902438D02*
X156785714Y-95950057D01*
X156785714Y-95950057D02*
X156833333Y-96045295D01*
X156833333Y-96045295D02*
X156833333Y-96188152D01*
X156833333Y-96188152D02*
X156785714Y-96283390D01*
X156785714Y-96283390D02*
X156738095Y-96331009D01*
X156738095Y-96331009D02*
X156642857Y-96378628D01*
X156642857Y-96378628D02*
X156261905Y-96378628D01*
X157166667Y-95854819D02*
X157785714Y-95854819D01*
X157785714Y-95854819D02*
X157452381Y-96235771D01*
X157452381Y-96235771D02*
X157595238Y-96235771D01*
X157595238Y-96235771D02*
X157690476Y-96283390D01*
X157690476Y-96283390D02*
X157738095Y-96331009D01*
X157738095Y-96331009D02*
X157785714Y-96426247D01*
X157785714Y-96426247D02*
X157785714Y-96664342D01*
X157785714Y-96664342D02*
X157738095Y-96759580D01*
X157738095Y-96759580D02*
X157690476Y-96807200D01*
X157690476Y-96807200D02*
X157595238Y-96854819D01*
X157595238Y-96854819D02*
X157309524Y-96854819D01*
X157309524Y-96854819D02*
X157214286Y-96807200D01*
X157214286Y-96807200D02*
X157166667Y-96759580D01*
X155824819Y-113363333D02*
X156539104Y-113363333D01*
X156539104Y-113363333D02*
X156681961Y-113410952D01*
X156681961Y-113410952D02*
X156777200Y-113506190D01*
X156777200Y-113506190D02*
X156824819Y-113649047D01*
X156824819Y-113649047D02*
X156824819Y-113744285D01*
X155824819Y-112982380D02*
X155824819Y-112363333D01*
X155824819Y-112363333D02*
X156205771Y-112696666D01*
X156205771Y-112696666D02*
X156205771Y-112553809D01*
X156205771Y-112553809D02*
X156253390Y-112458571D01*
X156253390Y-112458571D02*
X156301009Y-112410952D01*
X156301009Y-112410952D02*
X156396247Y-112363333D01*
X156396247Y-112363333D02*
X156634342Y-112363333D01*
X156634342Y-112363333D02*
X156729580Y-112410952D01*
X156729580Y-112410952D02*
X156777200Y-112458571D01*
X156777200Y-112458571D02*
X156824819Y-112553809D01*
X156824819Y-112553809D02*
X156824819Y-112839523D01*
X156824819Y-112839523D02*
X156777200Y-112934761D01*
X156777200Y-112934761D02*
X156729580Y-112982380D01*
X163305833Y-98654819D02*
X162972500Y-98178628D01*
X162734405Y-98654819D02*
X162734405Y-97654819D01*
X162734405Y-97654819D02*
X163115357Y-97654819D01*
X163115357Y-97654819D02*
X163210595Y-97702438D01*
X163210595Y-97702438D02*
X163258214Y-97750057D01*
X163258214Y-97750057D02*
X163305833Y-97845295D01*
X163305833Y-97845295D02*
X163305833Y-97988152D01*
X163305833Y-97988152D02*
X163258214Y-98083390D01*
X163258214Y-98083390D02*
X163210595Y-98131009D01*
X163210595Y-98131009D02*
X163115357Y-98178628D01*
X163115357Y-98178628D02*
X162734405Y-98178628D01*
X164162976Y-97988152D02*
X164162976Y-98654819D01*
X163924881Y-97607200D02*
X163686786Y-98321485D01*
X163686786Y-98321485D02*
X164305833Y-98321485D01*
X170738095Y-88654819D02*
X170738095Y-87654819D01*
X170738095Y-88131009D02*
X171309523Y-88131009D01*
X171309523Y-88654819D02*
X171309523Y-87654819D01*
X171738095Y-87750057D02*
X171785714Y-87702438D01*
X171785714Y-87702438D02*
X171880952Y-87654819D01*
X171880952Y-87654819D02*
X172119047Y-87654819D01*
X172119047Y-87654819D02*
X172214285Y-87702438D01*
X172214285Y-87702438D02*
X172261904Y-87750057D01*
X172261904Y-87750057D02*
X172309523Y-87845295D01*
X172309523Y-87845295D02*
X172309523Y-87940533D01*
X172309523Y-87940533D02*
X172261904Y-88083390D01*
X172261904Y-88083390D02*
X171690476Y-88654819D01*
X171690476Y-88654819D02*
X172309523Y-88654819D01*
X156733333Y-100359580D02*
X156685714Y-100407200D01*
X156685714Y-100407200D02*
X156542857Y-100454819D01*
X156542857Y-100454819D02*
X156447619Y-100454819D01*
X156447619Y-100454819D02*
X156304762Y-100407200D01*
X156304762Y-100407200D02*
X156209524Y-100311961D01*
X156209524Y-100311961D02*
X156161905Y-100216723D01*
X156161905Y-100216723D02*
X156114286Y-100026247D01*
X156114286Y-100026247D02*
X156114286Y-99883390D01*
X156114286Y-99883390D02*
X156161905Y-99692914D01*
X156161905Y-99692914D02*
X156209524Y-99597676D01*
X156209524Y-99597676D02*
X156304762Y-99502438D01*
X156304762Y-99502438D02*
X156447619Y-99454819D01*
X156447619Y-99454819D02*
X156542857Y-99454819D01*
X156542857Y-99454819D02*
X156685714Y-99502438D01*
X156685714Y-99502438D02*
X156733333Y-99550057D01*
X157590476Y-99788152D02*
X157590476Y-100454819D01*
X157352381Y-99407200D02*
X157114286Y-100121485D01*
X157114286Y-100121485D02*
X157733333Y-100121485D01*
X168638095Y-111254819D02*
X168638095Y-110254819D01*
X168638095Y-110731009D02*
X169209523Y-110731009D01*
X169209523Y-111254819D02*
X169209523Y-110254819D01*
X170114285Y-110588152D02*
X170114285Y-111254819D01*
X169876190Y-110207200D02*
X169638095Y-110921485D01*
X169638095Y-110921485D02*
X170257142Y-110921485D01*
X156733333Y-104254819D02*
X156400000Y-103778628D01*
X156161905Y-104254819D02*
X156161905Y-103254819D01*
X156161905Y-103254819D02*
X156542857Y-103254819D01*
X156542857Y-103254819D02*
X156638095Y-103302438D01*
X156638095Y-103302438D02*
X156685714Y-103350057D01*
X156685714Y-103350057D02*
X156733333Y-103445295D01*
X156733333Y-103445295D02*
X156733333Y-103588152D01*
X156733333Y-103588152D02*
X156685714Y-103683390D01*
X156685714Y-103683390D02*
X156638095Y-103731009D01*
X156638095Y-103731009D02*
X156542857Y-103778628D01*
X156542857Y-103778628D02*
X156161905Y-103778628D01*
X157114286Y-103350057D02*
X157161905Y-103302438D01*
X157161905Y-103302438D02*
X157257143Y-103254819D01*
X157257143Y-103254819D02*
X157495238Y-103254819D01*
X157495238Y-103254819D02*
X157590476Y-103302438D01*
X157590476Y-103302438D02*
X157638095Y-103350057D01*
X157638095Y-103350057D02*
X157685714Y-103445295D01*
X157685714Y-103445295D02*
X157685714Y-103540533D01*
X157685714Y-103540533D02*
X157638095Y-103683390D01*
X157638095Y-103683390D02*
X157066667Y-104254819D01*
X157066667Y-104254819D02*
X157685714Y-104254819D01*
X132738095Y-89834819D02*
X132738095Y-90644342D01*
X132738095Y-90644342D02*
X132785714Y-90739580D01*
X132785714Y-90739580D02*
X132833333Y-90787200D01*
X132833333Y-90787200D02*
X132928571Y-90834819D01*
X132928571Y-90834819D02*
X133119047Y-90834819D01*
X133119047Y-90834819D02*
X133214285Y-90787200D01*
X133214285Y-90787200D02*
X133261904Y-90739580D01*
X133261904Y-90739580D02*
X133309523Y-90644342D01*
X133309523Y-90644342D02*
X133309523Y-89834819D01*
X133690476Y-89834819D02*
X134309523Y-89834819D01*
X134309523Y-89834819D02*
X133976190Y-90215771D01*
X133976190Y-90215771D02*
X134119047Y-90215771D01*
X134119047Y-90215771D02*
X134214285Y-90263390D01*
X134214285Y-90263390D02*
X134261904Y-90311009D01*
X134261904Y-90311009D02*
X134309523Y-90406247D01*
X134309523Y-90406247D02*
X134309523Y-90644342D01*
X134309523Y-90644342D02*
X134261904Y-90739580D01*
X134261904Y-90739580D02*
X134214285Y-90787200D01*
X134214285Y-90787200D02*
X134119047Y-90834819D01*
X134119047Y-90834819D02*
X133833333Y-90834819D01*
X133833333Y-90834819D02*
X133738095Y-90787200D01*
X133738095Y-90787200D02*
X133690476Y-90739580D01*
X163333333Y-102554819D02*
X163000000Y-102078628D01*
X162761905Y-102554819D02*
X162761905Y-101554819D01*
X162761905Y-101554819D02*
X163142857Y-101554819D01*
X163142857Y-101554819D02*
X163238095Y-101602438D01*
X163238095Y-101602438D02*
X163285714Y-101650057D01*
X163285714Y-101650057D02*
X163333333Y-101745295D01*
X163333333Y-101745295D02*
X163333333Y-101888152D01*
X163333333Y-101888152D02*
X163285714Y-101983390D01*
X163285714Y-101983390D02*
X163238095Y-102031009D01*
X163238095Y-102031009D02*
X163142857Y-102078628D01*
X163142857Y-102078628D02*
X162761905Y-102078628D01*
X164238095Y-101554819D02*
X163761905Y-101554819D01*
X163761905Y-101554819D02*
X163714286Y-102031009D01*
X163714286Y-102031009D02*
X163761905Y-101983390D01*
X163761905Y-101983390D02*
X163857143Y-101935771D01*
X163857143Y-101935771D02*
X164095238Y-101935771D01*
X164095238Y-101935771D02*
X164190476Y-101983390D01*
X164190476Y-101983390D02*
X164238095Y-102031009D01*
X164238095Y-102031009D02*
X164285714Y-102126247D01*
X164285714Y-102126247D02*
X164285714Y-102364342D01*
X164285714Y-102364342D02*
X164238095Y-102459580D01*
X164238095Y-102459580D02*
X164190476Y-102507200D01*
X164190476Y-102507200D02*
X164095238Y-102554819D01*
X164095238Y-102554819D02*
X163857143Y-102554819D01*
X163857143Y-102554819D02*
X163761905Y-102507200D01*
X163761905Y-102507200D02*
X163714286Y-102459580D01*
X149693333Y-87359580D02*
X149645714Y-87407200D01*
X149645714Y-87407200D02*
X149502857Y-87454819D01*
X149502857Y-87454819D02*
X149407619Y-87454819D01*
X149407619Y-87454819D02*
X149264762Y-87407200D01*
X149264762Y-87407200D02*
X149169524Y-87311961D01*
X149169524Y-87311961D02*
X149121905Y-87216723D01*
X149121905Y-87216723D02*
X149074286Y-87026247D01*
X149074286Y-87026247D02*
X149074286Y-86883390D01*
X149074286Y-86883390D02*
X149121905Y-86692914D01*
X149121905Y-86692914D02*
X149169524Y-86597676D01*
X149169524Y-86597676D02*
X149264762Y-86502438D01*
X149264762Y-86502438D02*
X149407619Y-86454819D01*
X149407619Y-86454819D02*
X149502857Y-86454819D01*
X149502857Y-86454819D02*
X149645714Y-86502438D01*
X149645714Y-86502438D02*
X149693333Y-86550057D01*
X150026667Y-86454819D02*
X150645714Y-86454819D01*
X150645714Y-86454819D02*
X150312381Y-86835771D01*
X150312381Y-86835771D02*
X150455238Y-86835771D01*
X150455238Y-86835771D02*
X150550476Y-86883390D01*
X150550476Y-86883390D02*
X150598095Y-86931009D01*
X150598095Y-86931009D02*
X150645714Y-87026247D01*
X150645714Y-87026247D02*
X150645714Y-87264342D01*
X150645714Y-87264342D02*
X150598095Y-87359580D01*
X150598095Y-87359580D02*
X150550476Y-87407200D01*
X150550476Y-87407200D02*
X150455238Y-87454819D01*
X150455238Y-87454819D02*
X150169524Y-87454819D01*
X150169524Y-87454819D02*
X150074286Y-87407200D01*
X150074286Y-87407200D02*
X150026667Y-87359580D01*
X133433333Y-107954819D02*
X133100000Y-107478628D01*
X132861905Y-107954819D02*
X132861905Y-106954819D01*
X132861905Y-106954819D02*
X133242857Y-106954819D01*
X133242857Y-106954819D02*
X133338095Y-107002438D01*
X133338095Y-107002438D02*
X133385714Y-107050057D01*
X133385714Y-107050057D02*
X133433333Y-107145295D01*
X133433333Y-107145295D02*
X133433333Y-107288152D01*
X133433333Y-107288152D02*
X133385714Y-107383390D01*
X133385714Y-107383390D02*
X133338095Y-107431009D01*
X133338095Y-107431009D02*
X133242857Y-107478628D01*
X133242857Y-107478628D02*
X132861905Y-107478628D01*
X133766667Y-106954819D02*
X134433333Y-106954819D01*
X134433333Y-106954819D02*
X134004762Y-107954819D01*
X127484285Y-96631009D02*
X127627142Y-96678628D01*
X127627142Y-96678628D02*
X127674761Y-96726247D01*
X127674761Y-96726247D02*
X127722380Y-96821485D01*
X127722380Y-96821485D02*
X127722380Y-96964342D01*
X127722380Y-96964342D02*
X127674761Y-97059580D01*
X127674761Y-97059580D02*
X127627142Y-97107200D01*
X127627142Y-97107200D02*
X127531904Y-97154819D01*
X127531904Y-97154819D02*
X127150952Y-97154819D01*
X127150952Y-97154819D02*
X127150952Y-96154819D01*
X127150952Y-96154819D02*
X127484285Y-96154819D01*
X127484285Y-96154819D02*
X127579523Y-96202438D01*
X127579523Y-96202438D02*
X127627142Y-96250057D01*
X127627142Y-96250057D02*
X127674761Y-96345295D01*
X127674761Y-96345295D02*
X127674761Y-96440533D01*
X127674761Y-96440533D02*
X127627142Y-96535771D01*
X127627142Y-96535771D02*
X127579523Y-96583390D01*
X127579523Y-96583390D02*
X127484285Y-96631009D01*
X127484285Y-96631009D02*
X127150952Y-96631009D01*
X128008095Y-96154819D02*
X128579523Y-96154819D01*
X128293809Y-97154819D02*
X128293809Y-96154819D01*
X129436666Y-97154819D02*
X128865238Y-97154819D01*
X129150952Y-97154819D02*
X129150952Y-96154819D01*
X129150952Y-96154819D02*
X129055714Y-96297676D01*
X129055714Y-96297676D02*
X128960476Y-96392914D01*
X128960476Y-96392914D02*
X128865238Y-96440533D01*
X130754819Y-112033333D02*
X131469104Y-112033333D01*
X131469104Y-112033333D02*
X131611961Y-112080952D01*
X131611961Y-112080952D02*
X131707200Y-112176190D01*
X131707200Y-112176190D02*
X131754819Y-112319047D01*
X131754819Y-112319047D02*
X131754819Y-112414285D01*
X130850057Y-111604761D02*
X130802438Y-111557142D01*
X130802438Y-111557142D02*
X130754819Y-111461904D01*
X130754819Y-111461904D02*
X130754819Y-111223809D01*
X130754819Y-111223809D02*
X130802438Y-111128571D01*
X130802438Y-111128571D02*
X130850057Y-111080952D01*
X130850057Y-111080952D02*
X130945295Y-111033333D01*
X130945295Y-111033333D02*
X131040533Y-111033333D01*
X131040533Y-111033333D02*
X131183390Y-111080952D01*
X131183390Y-111080952D02*
X131754819Y-111652380D01*
X131754819Y-111652380D02*
X131754819Y-111033333D01*
X164061905Y-87454819D02*
X164061905Y-86454819D01*
X164061905Y-86454819D02*
X164300000Y-86454819D01*
X164300000Y-86454819D02*
X164442857Y-86502438D01*
X164442857Y-86502438D02*
X164538095Y-86597676D01*
X164538095Y-86597676D02*
X164585714Y-86692914D01*
X164585714Y-86692914D02*
X164633333Y-86883390D01*
X164633333Y-86883390D02*
X164633333Y-87026247D01*
X164633333Y-87026247D02*
X164585714Y-87216723D01*
X164585714Y-87216723D02*
X164538095Y-87311961D01*
X164538095Y-87311961D02*
X164442857Y-87407200D01*
X164442857Y-87407200D02*
X164300000Y-87454819D01*
X164300000Y-87454819D02*
X164061905Y-87454819D01*
X165585714Y-87454819D02*
X165014286Y-87454819D01*
X165300000Y-87454819D02*
X165300000Y-86454819D01*
X165300000Y-86454819D02*
X165204762Y-86597676D01*
X165204762Y-86597676D02*
X165109524Y-86692914D01*
X165109524Y-86692914D02*
X165014286Y-86740533D01*
X149383809Y-105128628D02*
X149383809Y-105604819D01*
X149050476Y-104604819D02*
X149383809Y-105128628D01*
X149383809Y-105128628D02*
X149717142Y-104604819D01*
X150002857Y-104700057D02*
X150050476Y-104652438D01*
X150050476Y-104652438D02*
X150145714Y-104604819D01*
X150145714Y-104604819D02*
X150383809Y-104604819D01*
X150383809Y-104604819D02*
X150479047Y-104652438D01*
X150479047Y-104652438D02*
X150526666Y-104700057D01*
X150526666Y-104700057D02*
X150574285Y-104795295D01*
X150574285Y-104795295D02*
X150574285Y-104890533D01*
X150574285Y-104890533D02*
X150526666Y-105033390D01*
X150526666Y-105033390D02*
X149955238Y-105604819D01*
X149955238Y-105604819D02*
X150574285Y-105604819D01*
X157033333Y-93254819D02*
X156700000Y-92778628D01*
X156461905Y-93254819D02*
X156461905Y-92254819D01*
X156461905Y-92254819D02*
X156842857Y-92254819D01*
X156842857Y-92254819D02*
X156938095Y-92302438D01*
X156938095Y-92302438D02*
X156985714Y-92350057D01*
X156985714Y-92350057D02*
X157033333Y-92445295D01*
X157033333Y-92445295D02*
X157033333Y-92588152D01*
X157033333Y-92588152D02*
X156985714Y-92683390D01*
X156985714Y-92683390D02*
X156938095Y-92731009D01*
X156938095Y-92731009D02*
X156842857Y-92778628D01*
X156842857Y-92778628D02*
X156461905Y-92778628D01*
X157890476Y-92254819D02*
X157700000Y-92254819D01*
X157700000Y-92254819D02*
X157604762Y-92302438D01*
X157604762Y-92302438D02*
X157557143Y-92350057D01*
X157557143Y-92350057D02*
X157461905Y-92492914D01*
X157461905Y-92492914D02*
X157414286Y-92683390D01*
X157414286Y-92683390D02*
X157414286Y-93064342D01*
X157414286Y-93064342D02*
X157461905Y-93159580D01*
X157461905Y-93159580D02*
X157509524Y-93207200D01*
X157509524Y-93207200D02*
X157604762Y-93254819D01*
X157604762Y-93254819D02*
X157795238Y-93254819D01*
X157795238Y-93254819D02*
X157890476Y-93207200D01*
X157890476Y-93207200D02*
X157938095Y-93159580D01*
X157938095Y-93159580D02*
X157985714Y-93064342D01*
X157985714Y-93064342D02*
X157985714Y-92826247D01*
X157985714Y-92826247D02*
X157938095Y-92731009D01*
X157938095Y-92731009D02*
X157890476Y-92683390D01*
X157890476Y-92683390D02*
X157795238Y-92635771D01*
X157795238Y-92635771D02*
X157604762Y-92635771D01*
X157604762Y-92635771D02*
X157509524Y-92683390D01*
X157509524Y-92683390D02*
X157461905Y-92731009D01*
X157461905Y-92731009D02*
X157414286Y-92826247D01*
X127538095Y-109954819D02*
X127538095Y-108954819D01*
X127538095Y-109431009D02*
X128109523Y-109431009D01*
X128109523Y-109954819D02*
X128109523Y-108954819D01*
X128490476Y-108954819D02*
X129109523Y-108954819D01*
X129109523Y-108954819D02*
X128776190Y-109335771D01*
X128776190Y-109335771D02*
X128919047Y-109335771D01*
X128919047Y-109335771D02*
X129014285Y-109383390D01*
X129014285Y-109383390D02*
X129061904Y-109431009D01*
X129061904Y-109431009D02*
X129109523Y-109526247D01*
X129109523Y-109526247D02*
X129109523Y-109764342D01*
X129109523Y-109764342D02*
X129061904Y-109859580D01*
X129061904Y-109859580D02*
X129014285Y-109907200D01*
X129014285Y-109907200D02*
X128919047Y-109954819D01*
X128919047Y-109954819D02*
X128633333Y-109954819D01*
X128633333Y-109954819D02*
X128538095Y-109907200D01*
X128538095Y-109907200D02*
X128490476Y-109859580D01*
X133338095Y-98854819D02*
X133338095Y-99664342D01*
X133338095Y-99664342D02*
X133385714Y-99759580D01*
X133385714Y-99759580D02*
X133433333Y-99807200D01*
X133433333Y-99807200D02*
X133528571Y-99854819D01*
X133528571Y-99854819D02*
X133719047Y-99854819D01*
X133719047Y-99854819D02*
X133814285Y-99807200D01*
X133814285Y-99807200D02*
X133861904Y-99759580D01*
X133861904Y-99759580D02*
X133909523Y-99664342D01*
X133909523Y-99664342D02*
X133909523Y-98854819D01*
X134909523Y-99854819D02*
X134338095Y-99854819D01*
X134623809Y-99854819D02*
X134623809Y-98854819D01*
X134623809Y-98854819D02*
X134528571Y-98997676D01*
X134528571Y-98997676D02*
X134433333Y-99092914D01*
X134433333Y-99092914D02*
X134338095Y-99140533D01*
X154733333Y-87259580D02*
X154685714Y-87307200D01*
X154685714Y-87307200D02*
X154542857Y-87354819D01*
X154542857Y-87354819D02*
X154447619Y-87354819D01*
X154447619Y-87354819D02*
X154304762Y-87307200D01*
X154304762Y-87307200D02*
X154209524Y-87211961D01*
X154209524Y-87211961D02*
X154161905Y-87116723D01*
X154161905Y-87116723D02*
X154114286Y-86926247D01*
X154114286Y-86926247D02*
X154114286Y-86783390D01*
X154114286Y-86783390D02*
X154161905Y-86592914D01*
X154161905Y-86592914D02*
X154209524Y-86497676D01*
X154209524Y-86497676D02*
X154304762Y-86402438D01*
X154304762Y-86402438D02*
X154447619Y-86354819D01*
X154447619Y-86354819D02*
X154542857Y-86354819D01*
X154542857Y-86354819D02*
X154685714Y-86402438D01*
X154685714Y-86402438D02*
X154733333Y-86450057D01*
X155638095Y-86354819D02*
X155161905Y-86354819D01*
X155161905Y-86354819D02*
X155114286Y-86831009D01*
X155114286Y-86831009D02*
X155161905Y-86783390D01*
X155161905Y-86783390D02*
X155257143Y-86735771D01*
X155257143Y-86735771D02*
X155495238Y-86735771D01*
X155495238Y-86735771D02*
X155590476Y-86783390D01*
X155590476Y-86783390D02*
X155638095Y-86831009D01*
X155638095Y-86831009D02*
X155685714Y-86926247D01*
X155685714Y-86926247D02*
X155685714Y-87164342D01*
X155685714Y-87164342D02*
X155638095Y-87259580D01*
X155638095Y-87259580D02*
X155590476Y-87307200D01*
X155590476Y-87307200D02*
X155495238Y-87354819D01*
X155495238Y-87354819D02*
X155257143Y-87354819D01*
X155257143Y-87354819D02*
X155161905Y-87307200D01*
X155161905Y-87307200D02*
X155114286Y-87259580D01*
X140838095Y-83554819D02*
X140838095Y-84364342D01*
X140838095Y-84364342D02*
X140885714Y-84459580D01*
X140885714Y-84459580D02*
X140933333Y-84507200D01*
X140933333Y-84507200D02*
X141028571Y-84554819D01*
X141028571Y-84554819D02*
X141219047Y-84554819D01*
X141219047Y-84554819D02*
X141314285Y-84507200D01*
X141314285Y-84507200D02*
X141361904Y-84459580D01*
X141361904Y-84459580D02*
X141409523Y-84364342D01*
X141409523Y-84364342D02*
X141409523Y-83554819D01*
X141838095Y-83650057D02*
X141885714Y-83602438D01*
X141885714Y-83602438D02*
X141980952Y-83554819D01*
X141980952Y-83554819D02*
X142219047Y-83554819D01*
X142219047Y-83554819D02*
X142314285Y-83602438D01*
X142314285Y-83602438D02*
X142361904Y-83650057D01*
X142361904Y-83650057D02*
X142409523Y-83745295D01*
X142409523Y-83745295D02*
X142409523Y-83840533D01*
X142409523Y-83840533D02*
X142361904Y-83983390D01*
X142361904Y-83983390D02*
X141790476Y-84554819D01*
X141790476Y-84554819D02*
X142409523Y-84554819D01*
X159281905Y-87354819D02*
X159281905Y-86354819D01*
X159281905Y-86354819D02*
X159520000Y-86354819D01*
X159520000Y-86354819D02*
X159662857Y-86402438D01*
X159662857Y-86402438D02*
X159758095Y-86497676D01*
X159758095Y-86497676D02*
X159805714Y-86592914D01*
X159805714Y-86592914D02*
X159853333Y-86783390D01*
X159853333Y-86783390D02*
X159853333Y-86926247D01*
X159853333Y-86926247D02*
X159805714Y-87116723D01*
X159805714Y-87116723D02*
X159758095Y-87211961D01*
X159758095Y-87211961D02*
X159662857Y-87307200D01*
X159662857Y-87307200D02*
X159520000Y-87354819D01*
X159520000Y-87354819D02*
X159281905Y-87354819D01*
X160234286Y-86450057D02*
X160281905Y-86402438D01*
X160281905Y-86402438D02*
X160377143Y-86354819D01*
X160377143Y-86354819D02*
X160615238Y-86354819D01*
X160615238Y-86354819D02*
X160710476Y-86402438D01*
X160710476Y-86402438D02*
X160758095Y-86450057D01*
X160758095Y-86450057D02*
X160805714Y-86545295D01*
X160805714Y-86545295D02*
X160805714Y-86640533D01*
X160805714Y-86640533D02*
X160758095Y-86783390D01*
X160758095Y-86783390D02*
X160186667Y-87354819D01*
X160186667Y-87354819D02*
X160805714Y-87354819D01*
X167666666Y-88354819D02*
X167666666Y-89069104D01*
X167666666Y-89069104D02*
X167619047Y-89211961D01*
X167619047Y-89211961D02*
X167523809Y-89307200D01*
X167523809Y-89307200D02*
X167380952Y-89354819D01*
X167380952Y-89354819D02*
X167285714Y-89354819D01*
X168571428Y-88688152D02*
X168571428Y-89354819D01*
X168333333Y-88307200D02*
X168095238Y-89021485D01*
X168095238Y-89021485D02*
X168714285Y-89021485D01*
D11*
%TO.C,J1*%
X172830000Y-101600000D02*
X172830000Y-109330000D01*
X170070000Y-109330000D02*
X172830000Y-109330000D01*
X170070000Y-101600000D02*
X172830000Y-101600000D01*
X170070000Y-101600000D02*
X170070000Y-109330000D01*
X170070000Y-100330000D02*
X170070000Y-98950000D01*
X170070000Y-98950000D02*
X171450000Y-98950000D01*
%TO.C,R1*%
X137290436Y-108485000D02*
X137744564Y-108485000D01*
X137290436Y-109955000D02*
X137744564Y-109955000D01*
D10*
%TO.C,U4*%
X144569311Y-93082244D02*
X144569311Y-93307244D01*
X144569311Y-93082244D02*
X144894311Y-93082244D01*
X144569311Y-100332244D02*
X144569311Y-100007244D01*
X144569311Y-100332244D02*
X144894311Y-100332244D01*
X151819311Y-93082244D02*
X151494311Y-93082244D01*
X151819311Y-93082244D02*
X151819311Y-93407244D01*
X151819311Y-100332244D02*
X151494311Y-100332244D01*
X151819311Y-100332244D02*
X151819311Y-100007244D01*
D11*
X143804311Y-93367244D02*
X143464311Y-92897244D01*
X144144311Y-92897244D01*
X143804311Y-93367244D01*
G36*
X143804311Y-93367244D02*
G01*
X143464311Y-92897244D01*
X144144311Y-92897244D01*
X143804311Y-93367244D01*
G37*
%TO.C,C1*%
X144518748Y-84355000D02*
X145041252Y-84355000D01*
X144518748Y-85825000D02*
X145041252Y-85825000D01*
%TO.C,Y1*%
X126470000Y-100170000D02*
X126470000Y-107420000D01*
X126470000Y-107420000D02*
X130070000Y-107420000D01*
X130070000Y-107420000D02*
X130070000Y-100170000D01*
%TO.C,C2*%
X156588268Y-104946421D02*
X157110772Y-104946421D01*
X156588268Y-106416421D02*
X157110772Y-106416421D01*
%TO.C,R3*%
X157267820Y-93808402D02*
X156813692Y-93808402D01*
X157267820Y-95278402D02*
X156813692Y-95278402D01*
%TO.C,J3*%
X157370000Y-114410000D02*
X157370000Y-113030000D01*
X158750000Y-114410000D02*
X157370000Y-114410000D01*
X160020000Y-111650000D02*
X167750000Y-111650000D01*
X160020000Y-114410000D02*
X160020000Y-111650000D01*
X160020000Y-114410000D02*
X167750000Y-114410000D01*
X167750000Y-114410000D02*
X167750000Y-111650000D01*
%TO.C,R4*%
X163245436Y-95785000D02*
X163699564Y-95785000D01*
X163245436Y-97255000D02*
X163699564Y-97255000D01*
%TO.C,C4*%
X157176659Y-97476088D02*
X156654155Y-97476088D01*
X157176659Y-98946088D02*
X156654155Y-98946088D01*
%TO.C,R2*%
X157114084Y-101136421D02*
X156659956Y-101136421D01*
X157114084Y-102606421D02*
X156659956Y-102606421D01*
%TO.C,U3*%
X133130000Y-91220000D02*
X133130000Y-91490000D01*
X133130000Y-96740000D02*
X133130000Y-96470000D01*
X135890000Y-91220000D02*
X133130000Y-91220000D01*
X135890000Y-91220000D02*
X138650000Y-91220000D01*
X135890000Y-96740000D02*
X133130000Y-96740000D01*
X135890000Y-96740000D02*
X138650000Y-96740000D01*
X138650000Y-91220000D02*
X138650000Y-91490000D01*
X138650000Y-96740000D02*
X138650000Y-96470000D01*
X132365000Y-91490000D02*
X132125000Y-91160000D01*
X132605000Y-91160000D01*
X132365000Y-91490000D01*
G36*
X132365000Y-91490000D02*
G01*
X132125000Y-91160000D01*
X132605000Y-91160000D01*
X132365000Y-91490000D01*
G37*
%TO.C,R5*%
X163699564Y-99595000D02*
X163245436Y-99595000D01*
X163699564Y-101065000D02*
X163245436Y-101065000D01*
%TO.C,C3*%
X149598748Y-84355000D02*
X150121252Y-84355000D01*
X149598748Y-85825000D02*
X150121252Y-85825000D01*
%TO.C,R7*%
X133577064Y-108485000D02*
X133122936Y-108485000D01*
X133577064Y-109955000D02*
X133122936Y-109955000D01*
%TO.C,BT1*%
X126890000Y-90060000D02*
X128270000Y-90060000D01*
X126890000Y-91440000D02*
X126890000Y-90060000D01*
X126890000Y-92710000D02*
X126890000Y-95360000D01*
X126890000Y-92710000D02*
X129650000Y-92710000D01*
X126890000Y-95360000D02*
X129650000Y-95360000D01*
X129650000Y-92710000D02*
X129650000Y-95360000D01*
%TO.C,J2*%
X131970000Y-114410000D02*
X131970000Y-113030000D01*
X133350000Y-114410000D02*
X131970000Y-114410000D01*
X134620000Y-111650000D02*
X155050000Y-111650000D01*
X134620000Y-114410000D02*
X134620000Y-111650000D01*
X134620000Y-114410000D02*
X155050000Y-114410000D01*
X155050000Y-114410000D02*
X155050000Y-111650000D01*
%TO.C,D1*%
X163126865Y-84151521D02*
X163126865Y-86071521D01*
X163126865Y-86071521D02*
X165811865Y-86071521D01*
X165811865Y-84151521D02*
X163126865Y-84151521D01*
%TO.C,Y2*%
X145310000Y-106150000D02*
X145310000Y-109750000D01*
X145310000Y-109750000D02*
X152560000Y-109750000D01*
X152560000Y-106150000D02*
X145310000Y-106150000D01*
%TO.C,R6*%
X157353371Y-90353604D02*
X156899243Y-90353604D01*
X157353371Y-91823604D02*
X156899243Y-91823604D01*
D12*
%TO.C,U1*%
X133890000Y-100350000D02*
X137890000Y-100350000D01*
X133890000Y-105390000D02*
X137890000Y-105390000D01*
D13*
X131545000Y-100375000D02*
G75*
G02*
X131345000Y-100375000I-100000J0D01*
G01*
X131345000Y-100375000D02*
G75*
G02*
X131545000Y-100375000I100000J0D01*
G01*
D11*
%TO.C,C5*%
X155201252Y-84355000D02*
X154678748Y-84355000D01*
X155201252Y-85825000D02*
X154678748Y-85825000D01*
%TO.C,U2*%
X133130000Y-83600000D02*
X133130000Y-83870000D01*
X133130000Y-89120000D02*
X133130000Y-88850000D01*
X135890000Y-83600000D02*
X133130000Y-83600000D01*
X135890000Y-83600000D02*
X138650000Y-83600000D01*
X135890000Y-89120000D02*
X133130000Y-89120000D01*
X135890000Y-89120000D02*
X138650000Y-89120000D01*
X138650000Y-83600000D02*
X138650000Y-83870000D01*
X138650000Y-89120000D02*
X138650000Y-88850000D01*
X132365000Y-83870000D02*
X132125000Y-83540000D01*
X132605000Y-83540000D01*
X132365000Y-83870000D01*
G36*
X132365000Y-83870000D02*
G01*
X132125000Y-83540000D01*
X132605000Y-83540000D01*
X132365000Y-83870000D01*
G37*
%TO.C,D2*%
X158335000Y-84130000D02*
X158335000Y-86050000D01*
X158335000Y-86050000D02*
X161020000Y-86050000D01*
X161020000Y-84130000D02*
X158335000Y-84130000D01*
%TO.C,J4*%
X167530000Y-90060000D02*
X168910000Y-90060000D01*
X167530000Y-91440000D02*
X167530000Y-90060000D01*
X167530000Y-92710000D02*
X167530000Y-97900000D01*
X167530000Y-92710000D02*
X170180000Y-92710000D01*
X167530000Y-97900000D02*
X172830000Y-97900000D01*
X170180000Y-90060000D02*
X172830000Y-90060000D01*
X170180000Y-92710000D02*
X170180000Y-90060000D01*
X172830000Y-90060000D02*
X172830000Y-97900000D01*
%TD*%
M02*
