M48
; DRILL file {KiCad 9.0.1} date 2025-04-10T12:08:18+0200
; FORMAT={-:-/ absolute / metric / decimal}
; #@! TF.CreationDate,2025-04-10T12:08:18+02:00
; #@! TF.GenerationSoftware,Kicad,Pcbnew,9.0.1
; #@! TF.FileFunction,Plated,1,2,PTH
FMAT,2
METRIC
; #@! TA.AperFunction,Plated,PTH,ViaDrill
T1C0.300
; #@! TA.AperFunction,Plated,PTH,ComponentDrill
T2C1.000
%
G90
G05
T1
X130.85Y-92.745
X132.302Y-89.9
X133.4Y-106.1
X134.62Y-93.45
X135.7Y-90.7
X136.8Y-107.5
X137.8Y-92.1
X137.9Y-93.3
X138.3Y-99.2
X140.1Y-103.6
X141.1Y-94.6
X142.1Y-89.8
X142.24Y-92.4
X142.3Y-97.1
X143.092Y-100.748
X143.3Y-107.3
X146.0Y-104.8
X146.194Y-93.98
X146.994Y-93.98
X147.2Y-106.1
X148.2Y-99.3
X148.594Y-94.0
X150.194Y-99.507
X150.994Y-99.06
X154.069Y-105.681
X154.093Y-96.307
X154.2Y-98.7
X154.94Y-103.45
X155.4Y-88.6
X155.45Y-87.65
X159.0Y-98.2
X159.4Y-106.5
X160.02Y-101.871
X160.15Y-87.55
X162.05Y-109.45
X163.8Y-110.3
X164.474Y-88.6
X165.25Y-95.0
X166.7Y-90.8
T2
X128.27Y-91.44
X128.27Y-93.98
X133.35Y-113.03
X135.89Y-113.03
X138.43Y-113.03
X140.97Y-113.03
X143.51Y-113.03
X146.05Y-113.03
X148.59Y-113.03
X151.13Y-113.03
X153.67Y-113.03
X158.75Y-113.03
X161.29Y-113.03
X163.83Y-113.03
X166.37Y-113.03
X168.91Y-91.44
X168.91Y-93.98
X168.91Y-96.52
X171.45Y-91.44
X171.45Y-93.98
X171.45Y-96.52
X171.45Y-100.33
X171.45Y-102.87
X171.45Y-105.41
X171.45Y-107.95
M30
