%TF.GenerationSoftware,KiCad,Pcbnew,9.0.1*%
%TF.CreationDate,2025-04-10T12:08:19+02:00*%
%TF.ProjectId,MCU_datalogger,4d43555f-6461-4746-916c-6f676765722e,rev?*%
%TF.SameCoordinates,Original*%
%TF.FileFunction,Copper,L2,Bot*%
%TF.FilePolarity,Positive*%
%FSLAX46Y46*%
G04 Gerber Fmt 4.6, Leading zero omitted, Abs format (unit mm)*
G04 Created by KiCad (PCBNEW 9.0.1) date 2025-04-10 12:08:19*
%MOMM*%
%LPD*%
G01*
G04 APERTURE LIST*
%TA.AperFunction,ComponentPad*%
%ADD10C,1.700000*%
%TD*%
%TA.AperFunction,ComponentPad*%
%ADD11R,1.700000X1.700000*%
%TD*%
%TA.AperFunction,ViaPad*%
%ADD12C,0.600000*%
%TD*%
%TA.AperFunction,Conductor*%
%ADD13C,0.200000*%
%TD*%
G04 APERTURE END LIST*
D10*
%TO.P,J1,4,Pin_4*%
%TO.N,/SCK*%
X171450000Y-107950000D03*
%TO.P,J1,3,Pin_3*%
%TO.N,/SDA*%
X171450000Y-105410000D03*
%TO.P,J1,2,Pin_2*%
%TO.N,/VCC*%
X171450000Y-102870000D03*
D11*
%TO.P,J1,1,Pin_1*%
%TO.N,GND*%
X171450000Y-100330000D03*
%TD*%
%TO.P,J3,1,Pin_1*%
%TO.N,GND*%
X158750000Y-113030000D03*
D10*
%TO.P,J3,2,Pin_2*%
%TO.N,/VCC*%
X161290000Y-113030000D03*
%TO.P,J3,3,Pin_3*%
%TO.N,/RX*%
X163830000Y-113030000D03*
%TO.P,J3,4,Pin_4*%
%TO.N,/TX*%
X166370000Y-113030000D03*
%TD*%
D11*
%TO.P,BT1,1,+*%
%TO.N,/VCC*%
X128270000Y-91440000D03*
D10*
%TO.P,BT1,2,-*%
%TO.N,GND*%
X128270000Y-93980000D03*
%TD*%
D11*
%TO.P,J2,1,Pin_1*%
%TO.N,/D2*%
X133350000Y-113030000D03*
D10*
%TO.P,J2,2,Pin_2*%
%TO.N,/D3*%
X135890000Y-113030000D03*
%TO.P,J2,3,Pin_3*%
%TO.N,/D4*%
X138430000Y-113030000D03*
%TO.P,J2,4,Pin_4*%
%TO.N,/D5*%
X140970000Y-113030000D03*
%TO.P,J2,5,Pin_5*%
%TO.N,/D6*%
X143510000Y-113030000D03*
%TO.P,J2,6,Pin_6*%
%TO.N,/D7*%
X146050000Y-113030000D03*
%TO.P,J2,7,Pin_7*%
%TO.N,/D8*%
X148590000Y-113030000D03*
%TO.P,J2,8,Pin_8*%
%TO.N,GND*%
X151130000Y-113030000D03*
%TO.P,J2,9,Pin_9*%
%TO.N,/VCC*%
X153670000Y-113030000D03*
%TD*%
D11*
%TO.P,J4,1,Pin_1*%
%TO.N,/MISO*%
X168910000Y-91440000D03*
D10*
%TO.P,J4,2,Pin_2*%
%TO.N,/VCC*%
X171450000Y-91440000D03*
%TO.P,J4,3,Pin_3*%
%TO.N,/SCK*%
X168910000Y-93980000D03*
%TO.P,J4,4,Pin_4*%
%TO.N,/MOSI*%
X171450000Y-93980000D03*
%TO.P,J4,5,Pin_5*%
%TO.N,/RESET*%
X168910000Y-96520000D03*
%TO.P,J4,6,Pin_6*%
%TO.N,GND*%
X171450000Y-96520000D03*
%TD*%
D12*
%TO.N,GND*%
X142300000Y-97100000D03*
%TO.N,/SCK*%
X164474365Y-88600000D03*
X155400000Y-88600000D03*
%TO.N,/SDA*%
X136800000Y-107500000D03*
%TO.N,/VCC*%
X137800000Y-92100000D03*
X160020000Y-101871421D03*
X130850000Y-92745000D03*
X143300000Y-107300000D03*
X154200000Y-98700000D03*
X138300000Y-99200000D03*
%TO.N,GND*%
X159000000Y-98200000D03*
X133400000Y-106100000D03*
X137900000Y-93300000D03*
X154092756Y-96307244D03*
X165250000Y-95000000D03*
X134620000Y-93450000D03*
X132302500Y-89900000D03*
X159400000Y-106500000D03*
%TO.N,Net-(C1-Pad1)*%
X135700000Y-90700000D03*
X142100000Y-89800000D03*
%TO.N,/SCK*%
X140100000Y-103600000D03*
X141100000Y-94600000D03*
X148594311Y-94000000D03*
X154940000Y-103450000D03*
%TO.N,/SDA*%
X146000000Y-104800000D03*
%TO.N,/TX*%
X146194311Y-93980000D03*
X162050000Y-109450000D03*
%TO.N,/RX*%
X146994311Y-93980000D03*
X163800000Y-110300000D03*
%TO.N,/RESET*%
X160150000Y-87550000D03*
X155450000Y-87650000D03*
%TO.N,/MOSI*%
X166700000Y-90800000D03*
X150194311Y-99507244D03*
%TO.N,/MISO*%
X150994311Y-99060000D03*
%TO.N,Net-(U4-XTAL1{slash}PB6)*%
X154068545Y-105681421D03*
X148200000Y-99300000D03*
%TO.N,Net-(U4-XTAL2{slash}PB7)*%
X147200000Y-106100000D03*
X143092156Y-100747844D03*
X142240000Y-92400000D03*
%TD*%
D13*
%TO.N,Net-(U4-XTAL2{slash}PB7)*%
X142000000Y-92400000D02*
X142240000Y-92400000D01*
X141700000Y-92700000D02*
X142000000Y-92400000D01*
X141701000Y-94351057D02*
X141700000Y-94350057D01*
X140550000Y-95999943D02*
X141701000Y-94848943D01*
X140550000Y-98205688D02*
X140550000Y-95999943D01*
X143092156Y-100747844D02*
X140550000Y-98205688D01*
X141701000Y-94848943D02*
X141701000Y-94351057D01*
X141700000Y-94350057D02*
X141700000Y-92700000D01*
%TO.N,/SCK*%
X140100000Y-95600000D02*
X141100000Y-94600000D01*
X140100000Y-103600000D02*
X140100000Y-95600000D01*
%TO.N,/MISO*%
X155800000Y-91450000D02*
X168900000Y-91450000D01*
X150994311Y-99060000D02*
X150994311Y-96255689D01*
X150994311Y-96255689D02*
X155800000Y-91450000D01*
X168900000Y-91450000D02*
X168910000Y-91440000D01*
%TO.N,/SCK*%
X164450000Y-88600000D02*
X164474365Y-88600000D01*
X155400000Y-88600000D02*
X164450000Y-88600000D01*
%TO.N,/RESET*%
X155500000Y-87600000D02*
X155450000Y-87650000D01*
X160100000Y-87600000D02*
X155500000Y-87600000D01*
X160150000Y-87550000D02*
X160100000Y-87600000D01*
%TO.N,/SCK*%
X162560000Y-100330000D02*
X168910000Y-93980000D01*
X162560000Y-103450000D02*
X162560000Y-100330000D01*
X162560000Y-103450000D02*
X166950000Y-103450000D01*
X154940000Y-103450000D02*
X162560000Y-103450000D01*
X166950000Y-103450000D02*
X171450000Y-107950000D01*
%TO.N,/VCC*%
X137750000Y-92150000D02*
X137800000Y-92100000D01*
X130850000Y-92745000D02*
X131445000Y-92150000D01*
X131445000Y-92150000D02*
X137750000Y-92150000D01*
%TO.N,GND*%
X137750000Y-93450000D02*
X137900000Y-93300000D01*
X134620000Y-93450000D02*
X137750000Y-93450000D01*
%TO.N,/SCK*%
X141100000Y-91800000D02*
X141100000Y-94600000D01*
X141950000Y-90950000D02*
X141100000Y-91800000D01*
X147700000Y-90950000D02*
X141950000Y-90950000D01*
X148594311Y-91844311D02*
X147700000Y-90950000D01*
X148594311Y-94000000D02*
X148594311Y-91844311D01*
%TO.N,/RX*%
X146994311Y-101394311D02*
X153300000Y-107700000D01*
X146994311Y-93980000D02*
X146994311Y-101394311D01*
X161200000Y-107700000D02*
X163800000Y-110300000D01*
%TO.N,/TX*%
X153367100Y-108400000D02*
X161000000Y-108400000D01*
X161000000Y-108400000D02*
X162050000Y-109450000D01*
X146194311Y-93980000D02*
X146194311Y-101227211D01*
X146194311Y-101227211D02*
X153367100Y-108400000D01*
%TO.N,Net-(U4-XTAL1{slash}PB6)*%
X154068545Y-105681421D02*
X148200000Y-99812876D01*
X148200000Y-99812876D02*
X148200000Y-99300000D01*
%TO.N,/VCC*%
X160020000Y-101871421D02*
X157371421Y-101871421D01*
X157371421Y-101871421D02*
X154200000Y-98700000D01*
%TO.N,Net-(U4-XTAL2{slash}PB7)*%
X146650000Y-104500000D02*
X146650000Y-105550000D01*
X146650000Y-105550000D02*
X147200000Y-106100000D01*
X143092156Y-100942156D02*
X146650000Y-104500000D01*
X143092156Y-100747844D02*
X143092156Y-100942156D01*
%TO.N,/MOSI*%
X155332900Y-90800000D02*
X166700000Y-90800000D01*
X150194311Y-95938589D02*
X155332900Y-90800000D01*
X150194311Y-99507244D02*
X150194311Y-95938589D01*
%TO.N,/SDA*%
X138400000Y-109100000D02*
X143900000Y-109100000D01*
X136800000Y-107500000D02*
X138400000Y-109100000D01*
X143900000Y-109100000D02*
X146000000Y-107000000D01*
X146000000Y-107000000D02*
X146000000Y-104800000D01*
%TO.N,/VCC*%
X143300000Y-107300000D02*
X138950000Y-107300000D01*
X138300000Y-99200000D02*
X138501000Y-98999000D01*
X138950000Y-107300000D02*
X136300000Y-104650000D01*
X138501000Y-92801000D02*
X137800000Y-92100000D01*
X136300000Y-101200000D02*
X138300000Y-99200000D01*
X136300000Y-104650000D02*
X136300000Y-101200000D01*
X138501000Y-98999000D02*
X138501000Y-92801000D01*
%TO.N,GND*%
X159000000Y-98200000D02*
X158988912Y-98211088D01*
X171450000Y-100330000D02*
X171450000Y-96520000D01*
%TO.N,Net-(C1-Pad1)*%
X142100000Y-89800000D02*
X136600000Y-89800000D01*
X136600000Y-89800000D02*
X135700000Y-90700000D01*
%TO.N,/RX*%
X153300000Y-107700000D02*
X161200000Y-107700000D01*
%TD*%
%TA.AperFunction,Conductor*%
%TO.N,GND*%
G36*
X170251444Y-94633999D02*
G01*
X170290486Y-94679056D01*
X170294951Y-94687820D01*
X170419890Y-94859786D01*
X170570213Y-95010109D01*
X170742179Y-95135048D01*
X170742181Y-95135049D01*
X170742184Y-95135051D01*
X170751493Y-95139794D01*
X170802290Y-95187766D01*
X170819087Y-95255587D01*
X170796552Y-95321722D01*
X170751505Y-95360760D01*
X170742446Y-95365376D01*
X170742440Y-95365380D01*
X170688282Y-95404727D01*
X170688282Y-95404728D01*
X171320591Y-96037037D01*
X171257007Y-96054075D01*
X171142993Y-96119901D01*
X171049901Y-96212993D01*
X170984075Y-96327007D01*
X170967037Y-96390591D01*
X170334728Y-95758282D01*
X170334727Y-95758282D01*
X170295380Y-95812440D01*
X170295376Y-95812446D01*
X170290760Y-95821505D01*
X170242781Y-95872297D01*
X170174959Y-95889087D01*
X170108826Y-95866543D01*
X170069794Y-95821493D01*
X170065051Y-95812184D01*
X170065049Y-95812181D01*
X170065048Y-95812179D01*
X169940109Y-95640213D01*
X169789786Y-95489890D01*
X169617820Y-95364951D01*
X169609600Y-95360763D01*
X169609054Y-95360485D01*
X169558259Y-95312512D01*
X169541463Y-95244692D01*
X169563999Y-95178556D01*
X169609054Y-95139515D01*
X169617816Y-95135051D01*
X169692586Y-95080728D01*
X169789786Y-95010109D01*
X169789788Y-95010106D01*
X169789792Y-95010104D01*
X169940104Y-94859792D01*
X169940106Y-94859788D01*
X169940109Y-94859786D01*
X170065048Y-94687820D01*
X170065047Y-94687820D01*
X170065051Y-94687816D01*
X170069514Y-94679054D01*
X170117488Y-94628259D01*
X170185308Y-94611463D01*
X170251444Y-94633999D01*
G37*
%TD.AperFunction*%
%TA.AperFunction,Conductor*%
G36*
X173006922Y-83001280D02*
G01*
X173097266Y-83011459D01*
X173124331Y-83017636D01*
X173203540Y-83045352D01*
X173228553Y-83057398D01*
X173299606Y-83102043D01*
X173321313Y-83119355D01*
X173380644Y-83178686D01*
X173397957Y-83200395D01*
X173442600Y-83271444D01*
X173454648Y-83296462D01*
X173482362Y-83375666D01*
X173488540Y-83402735D01*
X173498720Y-83493076D01*
X173499500Y-83506961D01*
X173499500Y-113994586D01*
X173499028Y-114005393D01*
X173499028Y-114005394D01*
X173485260Y-114162753D01*
X173481507Y-114184038D01*
X173442030Y-114331369D01*
X173434637Y-114351681D01*
X173370177Y-114489915D01*
X173359370Y-114508633D01*
X173271880Y-114633582D01*
X173257986Y-114650140D01*
X173150140Y-114757986D01*
X173133582Y-114771880D01*
X173008633Y-114859370D01*
X172989915Y-114870177D01*
X172851681Y-114934637D01*
X172831369Y-114942030D01*
X172684038Y-114981507D01*
X172662753Y-114985260D01*
X172505395Y-114999028D01*
X172494587Y-114999500D01*
X127005413Y-114999500D01*
X126994605Y-114999028D01*
X126837246Y-114985260D01*
X126815961Y-114981507D01*
X126668630Y-114942030D01*
X126648318Y-114934637D01*
X126510084Y-114870177D01*
X126491366Y-114859370D01*
X126366417Y-114771880D01*
X126349859Y-114757986D01*
X126242013Y-114650140D01*
X126228119Y-114633582D01*
X126140629Y-114508633D01*
X126129822Y-114489915D01*
X126065362Y-114351681D01*
X126057969Y-114331369D01*
X126032206Y-114235218D01*
X126018491Y-114184035D01*
X126014739Y-114162752D01*
X126013209Y-114145269D01*
X126000972Y-114005393D01*
X126000500Y-113994586D01*
X126000500Y-112927648D01*
X126969500Y-112927648D01*
X126969500Y-113132351D01*
X127001522Y-113334534D01*
X127064781Y-113529223D01*
X127128691Y-113654653D01*
X127143644Y-113683999D01*
X127157715Y-113711613D01*
X127278028Y-113877213D01*
X127422786Y-114021971D01*
X127560928Y-114122335D01*
X127588390Y-114142287D01*
X127672319Y-114185051D01*
X127770776Y-114235218D01*
X127770778Y-114235218D01*
X127770781Y-114235220D01*
X127875137Y-114269127D01*
X127965465Y-114298477D01*
X128066557Y-114314488D01*
X128167648Y-114330500D01*
X128167649Y-114330500D01*
X128372351Y-114330500D01*
X128372352Y-114330500D01*
X128574534Y-114298477D01*
X128769219Y-114235220D01*
X128951610Y-114142287D01*
X129064726Y-114060104D01*
X129117213Y-114021971D01*
X129117215Y-114021968D01*
X129117219Y-114021966D01*
X129261966Y-113877219D01*
X129261968Y-113877215D01*
X129261971Y-113877213D01*
X129363244Y-113737820D01*
X129382287Y-113711610D01*
X129475220Y-113529219D01*
X129538477Y-113334534D01*
X129570500Y-113132352D01*
X129570500Y-112927648D01*
X129556144Y-112837007D01*
X129538477Y-112725465D01*
X129507426Y-112629901D01*
X129475220Y-112530781D01*
X129475218Y-112530778D01*
X129475218Y-112530776D01*
X129382287Y-112348390D01*
X129275705Y-112201691D01*
X129275704Y-112201690D01*
X129261967Y-112182782D01*
X129211320Y-112132135D01*
X131999500Y-112132135D01*
X131999500Y-113927870D01*
X131999501Y-113927876D01*
X132005908Y-113987483D01*
X132056202Y-114122328D01*
X132056206Y-114122335D01*
X132142452Y-114237544D01*
X132142455Y-114237547D01*
X132257664Y-114323793D01*
X132257671Y-114323797D01*
X132392517Y-114374091D01*
X132392516Y-114374091D01*
X132399444Y-114374835D01*
X132452127Y-114380500D01*
X134247872Y-114380499D01*
X134307483Y-114374091D01*
X134442331Y-114323796D01*
X134557546Y-114237546D01*
X134643796Y-114122331D01*
X134692810Y-113990916D01*
X134734681Y-113934984D01*
X134800145Y-113910566D01*
X134868418Y-113925417D01*
X134896673Y-113946569D01*
X135010213Y-114060109D01*
X135182179Y-114185048D01*
X135182181Y-114185049D01*
X135182184Y-114185051D01*
X135371588Y-114281557D01*
X135573757Y-114347246D01*
X135783713Y-114380500D01*
X135783714Y-114380500D01*
X135996286Y-114380500D01*
X135996287Y-114380500D01*
X136206243Y-114347246D01*
X136408412Y-114281557D01*
X136597816Y-114185051D01*
X136684138Y-114122335D01*
X136769786Y-114060109D01*
X136769788Y-114060106D01*
X136769792Y-114060104D01*
X136920104Y-113909792D01*
X136920106Y-113909788D01*
X136920109Y-113909786D01*
X137045048Y-113737820D01*
X137045047Y-113737820D01*
X137045051Y-113737816D01*
X137049514Y-113729054D01*
X137097488Y-113678259D01*
X137165308Y-113661463D01*
X137231444Y-113683999D01*
X137270486Y-113729056D01*
X137274951Y-113737820D01*
X137399890Y-113909786D01*
X137550213Y-114060109D01*
X137722179Y-114185048D01*
X137722181Y-114185049D01*
X137722184Y-114185051D01*
X137911588Y-114281557D01*
X138113757Y-114347246D01*
X138323713Y-114380500D01*
X138323714Y-114380500D01*
X138536286Y-114380500D01*
X138536287Y-114380500D01*
X138746243Y-114347246D01*
X138948412Y-114281557D01*
X139137816Y-114185051D01*
X139224138Y-114122335D01*
X139309786Y-114060109D01*
X139309788Y-114060106D01*
X139309792Y-114060104D01*
X139460104Y-113909792D01*
X139460106Y-113909788D01*
X139460109Y-113909786D01*
X139585048Y-113737820D01*
X139585047Y-113737820D01*
X139585051Y-113737816D01*
X139589514Y-113729054D01*
X139637488Y-113678259D01*
X139705308Y-113661463D01*
X139771444Y-113683999D01*
X139810486Y-113729056D01*
X139814951Y-113737820D01*
X139939890Y-113909786D01*
X140090213Y-114060109D01*
X140262179Y-114185048D01*
X140262181Y-114185049D01*
X140262184Y-114185051D01*
X140451588Y-114281557D01*
X140653757Y-114347246D01*
X140863713Y-114380500D01*
X140863714Y-114380500D01*
X141076286Y-114380500D01*
X141076287Y-114380500D01*
X141286243Y-114347246D01*
X141488412Y-114281557D01*
X141677816Y-114185051D01*
X141764138Y-114122335D01*
X141849786Y-114060109D01*
X141849788Y-114060106D01*
X141849792Y-114060104D01*
X142000104Y-113909792D01*
X142000106Y-113909788D01*
X142000109Y-113909786D01*
X142125048Y-113737820D01*
X142125047Y-113737820D01*
X142125051Y-113737816D01*
X142129514Y-113729054D01*
X142177488Y-113678259D01*
X142245308Y-113661463D01*
X142311444Y-113683999D01*
X142350486Y-113729056D01*
X142354951Y-113737820D01*
X142479890Y-113909786D01*
X142630213Y-114060109D01*
X142802179Y-114185048D01*
X142802181Y-114185049D01*
X142802184Y-114185051D01*
X142991588Y-114281557D01*
X143193757Y-114347246D01*
X143403713Y-114380500D01*
X143403714Y-114380500D01*
X143616286Y-114380500D01*
X143616287Y-114380500D01*
X143826243Y-114347246D01*
X144028412Y-114281557D01*
X144217816Y-114185051D01*
X144304138Y-114122335D01*
X144389786Y-114060109D01*
X144389788Y-114060106D01*
X144389792Y-114060104D01*
X144540104Y-113909792D01*
X144540106Y-113909788D01*
X144540109Y-113909786D01*
X144665048Y-113737820D01*
X144665047Y-113737820D01*
X144665051Y-113737816D01*
X144669514Y-113729054D01*
X144717488Y-113678259D01*
X144785308Y-113661463D01*
X144851444Y-113683999D01*
X144890486Y-113729056D01*
X144894951Y-113737820D01*
X145019890Y-113909786D01*
X145170213Y-114060109D01*
X145342179Y-114185048D01*
X145342181Y-114185049D01*
X145342184Y-114185051D01*
X145531588Y-114281557D01*
X145733757Y-114347246D01*
X145943713Y-114380500D01*
X145943714Y-114380500D01*
X146156286Y-114380500D01*
X146156287Y-114380500D01*
X146366243Y-114347246D01*
X146568412Y-114281557D01*
X146757816Y-114185051D01*
X146844138Y-114122335D01*
X146929786Y-114060109D01*
X146929788Y-114060106D01*
X146929792Y-114060104D01*
X147080104Y-113909792D01*
X147080106Y-113909788D01*
X147080109Y-113909786D01*
X147205048Y-113737820D01*
X147205047Y-113737820D01*
X147205051Y-113737816D01*
X147209514Y-113729054D01*
X147257488Y-113678259D01*
X147325308Y-113661463D01*
X147391444Y-113683999D01*
X147430486Y-113729056D01*
X147434951Y-113737820D01*
X147559890Y-113909786D01*
X147710213Y-114060109D01*
X147882179Y-114185048D01*
X147882181Y-114185049D01*
X147882184Y-114185051D01*
X148071588Y-114281557D01*
X148273757Y-114347246D01*
X148483713Y-114380500D01*
X148483714Y-114380500D01*
X148696286Y-114380500D01*
X148696287Y-114380500D01*
X148906243Y-114347246D01*
X149108412Y-114281557D01*
X149297816Y-114185051D01*
X149384138Y-114122335D01*
X149469786Y-114060109D01*
X149469788Y-114060106D01*
X149469792Y-114060104D01*
X149620104Y-113909792D01*
X149620106Y-113909788D01*
X149620109Y-113909786D01*
X149705890Y-113791717D01*
X149745051Y-113737816D01*
X149749793Y-113728508D01*
X149797763Y-113677711D01*
X149865583Y-113660911D01*
X149931719Y-113683445D01*
X149970763Y-113728500D01*
X149975373Y-113737547D01*
X150014728Y-113791716D01*
X150647037Y-113159408D01*
X150664075Y-113222993D01*
X150729901Y-113337007D01*
X150822993Y-113430099D01*
X150937007Y-113495925D01*
X151000590Y-113512962D01*
X150368282Y-114145269D01*
X150368282Y-114145270D01*
X150422449Y-114184624D01*
X150611782Y-114281095D01*
X150813870Y-114346757D01*
X151023754Y-114380000D01*
X151236246Y-114380000D01*
X151446127Y-114346757D01*
X151446130Y-114346757D01*
X151648217Y-114281095D01*
X151837554Y-114184622D01*
X151891716Y-114145270D01*
X151891717Y-114145270D01*
X151259408Y-113512962D01*
X151322993Y-113495925D01*
X151437007Y-113430099D01*
X151530099Y-113337007D01*
X151595925Y-113222993D01*
X151612962Y-113159408D01*
X152245270Y-113791717D01*
X152245270Y-113791716D01*
X152284622Y-113737555D01*
X152289232Y-113728507D01*
X152337205Y-113677709D01*
X152405025Y-113660912D01*
X152471161Y-113683447D01*
X152510204Y-113728504D01*
X152514949Y-113737817D01*
X152639890Y-113909786D01*
X152790213Y-114060109D01*
X152962179Y-114185048D01*
X152962181Y-114185049D01*
X152962184Y-114185051D01*
X153151588Y-114281557D01*
X153353757Y-114347246D01*
X153563713Y-114380500D01*
X153563714Y-114380500D01*
X153776286Y-114380500D01*
X153776287Y-114380500D01*
X153986243Y-114347246D01*
X154188412Y-114281557D01*
X154377816Y-114185051D01*
X154464138Y-114122335D01*
X154549786Y-114060109D01*
X154549788Y-114060106D01*
X154549792Y-114060104D01*
X154700104Y-113909792D01*
X154700106Y-113909788D01*
X154700109Y-113909786D01*
X154825048Y-113737820D01*
X154825047Y-113737820D01*
X154825051Y-113737816D01*
X154921557Y-113548412D01*
X154987246Y-113346243D01*
X155020500Y-113136287D01*
X155020500Y-112923713D01*
X154987246Y-112713757D01*
X154921557Y-112511588D01*
X154825051Y-112322184D01*
X154825049Y-112322181D01*
X154825048Y-112322179D01*
X154737542Y-112201736D01*
X154700109Y-112150214D01*
X154700105Y-112150209D01*
X154682051Y-112132155D01*
X157400000Y-112132155D01*
X157400000Y-112780000D01*
X158316988Y-112780000D01*
X158284075Y-112837007D01*
X158250000Y-112964174D01*
X158250000Y-113095826D01*
X158284075Y-113222993D01*
X158316988Y-113280000D01*
X157400000Y-113280000D01*
X157400000Y-113927844D01*
X157406401Y-113987372D01*
X157406403Y-113987379D01*
X157456645Y-114122086D01*
X157456649Y-114122093D01*
X157542809Y-114237187D01*
X157542812Y-114237190D01*
X157657906Y-114323350D01*
X157657913Y-114323354D01*
X157792620Y-114373596D01*
X157792627Y-114373598D01*
X157852155Y-114379999D01*
X157852172Y-114380000D01*
X158500000Y-114380000D01*
X158500000Y-113463012D01*
X158557007Y-113495925D01*
X158684174Y-113530000D01*
X158815826Y-113530000D01*
X158942993Y-113495925D01*
X159000000Y-113463012D01*
X159000000Y-114380000D01*
X159647828Y-114380000D01*
X159647844Y-114379999D01*
X159707372Y-114373598D01*
X159707379Y-114373596D01*
X159842086Y-114323354D01*
X159842093Y-114323350D01*
X159957187Y-114237190D01*
X159957190Y-114237187D01*
X160043350Y-114122093D01*
X160043354Y-114122086D01*
X160092422Y-113990529D01*
X160134293Y-113934595D01*
X160199757Y-113910178D01*
X160268030Y-113925030D01*
X160296285Y-113946181D01*
X160410213Y-114060109D01*
X160582179Y-114185048D01*
X160582181Y-114185049D01*
X160582184Y-114185051D01*
X160771588Y-114281557D01*
X160973757Y-114347246D01*
X161183713Y-114380500D01*
X161183714Y-114380500D01*
X161396286Y-114380500D01*
X161396287Y-114380500D01*
X161606243Y-114347246D01*
X161808412Y-114281557D01*
X161997816Y-114185051D01*
X162084138Y-114122335D01*
X162169786Y-114060109D01*
X162169788Y-114060106D01*
X162169792Y-114060104D01*
X162320104Y-113909792D01*
X162320106Y-113909788D01*
X162320109Y-113909786D01*
X162445048Y-113737820D01*
X162445047Y-113737820D01*
X162445051Y-113737816D01*
X162449514Y-113729054D01*
X162497488Y-113678259D01*
X162565308Y-113661463D01*
X162631444Y-113683999D01*
X162670486Y-113729056D01*
X162674951Y-113737820D01*
X162799890Y-113909786D01*
X162950213Y-114060109D01*
X163122179Y-114185048D01*
X163122181Y-114185049D01*
X163122184Y-114185051D01*
X163311588Y-114281557D01*
X163513757Y-114347246D01*
X163723713Y-114380500D01*
X163723714Y-114380500D01*
X163936286Y-114380500D01*
X163936287Y-114380500D01*
X164146243Y-114347246D01*
X164348412Y-114281557D01*
X164537816Y-114185051D01*
X164624138Y-114122335D01*
X164709786Y-114060109D01*
X164709788Y-114060106D01*
X164709792Y-114060104D01*
X164860104Y-113909792D01*
X164860106Y-113909788D01*
X164860109Y-113909786D01*
X164985048Y-113737820D01*
X164985047Y-113737820D01*
X164985051Y-113737816D01*
X164989514Y-113729054D01*
X165037488Y-113678259D01*
X165105308Y-113661463D01*
X165171444Y-113683999D01*
X165210486Y-113729056D01*
X165214951Y-113737820D01*
X165339890Y-113909786D01*
X165490213Y-114060109D01*
X165662179Y-114185048D01*
X165662181Y-114185049D01*
X165662184Y-114185051D01*
X165851588Y-114281557D01*
X166053757Y-114347246D01*
X166263713Y-114380500D01*
X166263714Y-114380500D01*
X166476286Y-114380500D01*
X166476287Y-114380500D01*
X166686243Y-114347246D01*
X166888412Y-114281557D01*
X167077816Y-114185051D01*
X167164138Y-114122335D01*
X167249786Y-114060109D01*
X167249788Y-114060106D01*
X167249792Y-114060104D01*
X167400104Y-113909792D01*
X167400106Y-113909788D01*
X167400109Y-113909786D01*
X167525048Y-113737820D01*
X167525047Y-113737820D01*
X167525051Y-113737816D01*
X167621557Y-113548412D01*
X167687246Y-113346243D01*
X167720500Y-113136287D01*
X167720500Y-112927648D01*
X170149500Y-112927648D01*
X170149500Y-113132351D01*
X170181522Y-113334534D01*
X170244781Y-113529223D01*
X170308691Y-113654653D01*
X170323644Y-113683999D01*
X170337715Y-113711613D01*
X170458028Y-113877213D01*
X170602786Y-114021971D01*
X170740928Y-114122335D01*
X170768390Y-114142287D01*
X170852319Y-114185051D01*
X170950776Y-114235218D01*
X170950778Y-114235218D01*
X170950781Y-114235220D01*
X171055137Y-114269127D01*
X171145465Y-114298477D01*
X171246557Y-114314488D01*
X171347648Y-114330500D01*
X171347649Y-114330500D01*
X171552351Y-114330500D01*
X171552352Y-114330500D01*
X171754534Y-114298477D01*
X171949219Y-114235220D01*
X172131610Y-114142287D01*
X172244726Y-114060104D01*
X172297213Y-114021971D01*
X172297215Y-114021968D01*
X172297219Y-114021966D01*
X172441966Y-113877219D01*
X172441968Y-113877215D01*
X172441971Y-113877213D01*
X172543244Y-113737820D01*
X172562287Y-113711610D01*
X172655220Y-113529219D01*
X172718477Y-113334534D01*
X172750500Y-113132352D01*
X172750500Y-112927648D01*
X172736144Y-112837007D01*
X172718477Y-112725465D01*
X172687426Y-112629901D01*
X172655220Y-112530781D01*
X172655218Y-112530778D01*
X172655218Y-112530776D01*
X172588118Y-112399087D01*
X172562287Y-112348390D01*
X172543438Y-112322446D01*
X172441971Y-112182786D01*
X172297213Y-112038028D01*
X172131613Y-111917715D01*
X172131612Y-111917714D01*
X172131610Y-111917713D01*
X172048527Y-111875380D01*
X171949223Y-111824781D01*
X171754534Y-111761522D01*
X171579995Y-111733878D01*
X171552352Y-111729500D01*
X171347648Y-111729500D01*
X171323329Y-111733351D01*
X171145465Y-111761522D01*
X170950776Y-111824781D01*
X170768386Y-111917715D01*
X170602786Y-112038028D01*
X170458028Y-112182786D01*
X170337715Y-112348386D01*
X170244781Y-112530776D01*
X170181522Y-112725465D01*
X170149500Y-112927648D01*
X167720500Y-112927648D01*
X167720500Y-112923713D01*
X167687246Y-112713757D01*
X167621557Y-112511588D01*
X167525051Y-112322184D01*
X167525049Y-112322181D01*
X167525048Y-112322179D01*
X167400109Y-112150213D01*
X167249786Y-111999890D01*
X167077820Y-111874951D01*
X166888414Y-111778444D01*
X166888413Y-111778443D01*
X166888412Y-111778443D01*
X166686243Y-111712754D01*
X166686241Y-111712753D01*
X166686240Y-111712753D01*
X166524957Y-111687208D01*
X166476287Y-111679500D01*
X166263713Y-111679500D01*
X166215042Y-111687208D01*
X166053760Y-111712753D01*
X165851585Y-111778444D01*
X165662179Y-111874951D01*
X165490213Y-111999890D01*
X165339890Y-112150213D01*
X165214949Y-112322182D01*
X165210484Y-112330946D01*
X165162509Y-112381742D01*
X165094688Y-112398536D01*
X165028553Y-112375998D01*
X164989516Y-112330946D01*
X164985050Y-112322182D01*
X164860109Y-112150213D01*
X164709786Y-111999890D01*
X164537820Y-111874951D01*
X164348414Y-111778444D01*
X164348413Y-111778443D01*
X164348412Y-111778443D01*
X164146243Y-111712754D01*
X164146241Y-111712753D01*
X164146240Y-111712753D01*
X163984957Y-111687208D01*
X163936287Y-111679500D01*
X163723713Y-111679500D01*
X163675042Y-111687208D01*
X163513760Y-111712753D01*
X163311585Y-111778444D01*
X163122179Y-111874951D01*
X162950213Y-111999890D01*
X162799890Y-112150213D01*
X162674949Y-112322182D01*
X162670484Y-112330946D01*
X162622509Y-112381742D01*
X162554688Y-112398536D01*
X162488553Y-112375998D01*
X162449516Y-112330946D01*
X162445050Y-112322182D01*
X162320109Y-112150213D01*
X162169786Y-111999890D01*
X161997820Y-111874951D01*
X161808414Y-111778444D01*
X161808413Y-111778443D01*
X161808412Y-111778443D01*
X161606243Y-111712754D01*
X161606241Y-111712753D01*
X161606240Y-111712753D01*
X161444957Y-111687208D01*
X161396287Y-111679500D01*
X161183713Y-111679500D01*
X161135042Y-111687208D01*
X160973760Y-111712753D01*
X160771585Y-111778444D01*
X160582179Y-111874951D01*
X160410215Y-111999889D01*
X160296285Y-112113819D01*
X160234962Y-112147303D01*
X160165270Y-112142319D01*
X160109337Y-112100447D01*
X160092422Y-112069470D01*
X160043354Y-111937913D01*
X160043350Y-111937906D01*
X159957190Y-111822812D01*
X159957187Y-111822809D01*
X159842093Y-111736649D01*
X159842086Y-111736645D01*
X159707379Y-111686403D01*
X159707372Y-111686401D01*
X159647844Y-111680000D01*
X159000000Y-111680000D01*
X159000000Y-112596988D01*
X158942993Y-112564075D01*
X158815826Y-112530000D01*
X158684174Y-112530000D01*
X158557007Y-112564075D01*
X158500000Y-112596988D01*
X158500000Y-111680000D01*
X157852155Y-111680000D01*
X157792627Y-111686401D01*
X157792620Y-111686403D01*
X157657913Y-111736645D01*
X157657906Y-111736649D01*
X157542812Y-111822809D01*
X157542809Y-111822812D01*
X157456649Y-111937906D01*
X157456645Y-111937913D01*
X157406403Y-112072620D01*
X157406401Y-112072627D01*
X157400000Y-112132155D01*
X154682051Y-112132155D01*
X154549786Y-111999890D01*
X154377820Y-111874951D01*
X154188414Y-111778444D01*
X154188413Y-111778443D01*
X154188412Y-111778443D01*
X153986243Y-111712754D01*
X153986241Y-111712753D01*
X153986240Y-111712753D01*
X153824957Y-111687208D01*
X153776287Y-111679500D01*
X153563713Y-111679500D01*
X153515042Y-111687208D01*
X153353760Y-111712753D01*
X153151585Y-111778444D01*
X152962179Y-111874951D01*
X152790213Y-111999890D01*
X152639890Y-112150213D01*
X152514949Y-112322182D01*
X152510202Y-112331499D01*
X152462227Y-112382293D01*
X152394405Y-112399087D01*
X152328271Y-112376548D01*
X152289234Y-112331495D01*
X152284626Y-112322452D01*
X152245270Y-112268282D01*
X152245269Y-112268282D01*
X151612962Y-112900590D01*
X151595925Y-112837007D01*
X151530099Y-112722993D01*
X151437007Y-112629901D01*
X151322993Y-112564075D01*
X151259409Y-112547037D01*
X151891716Y-111914728D01*
X151837550Y-111875375D01*
X151648217Y-111778904D01*
X151446129Y-111713242D01*
X151236246Y-111680000D01*
X151023754Y-111680000D01*
X150813872Y-111713242D01*
X150813869Y-111713242D01*
X150611782Y-111778904D01*
X150422439Y-111875380D01*
X150368282Y-111914727D01*
X150368282Y-111914728D01*
X151000591Y-112547037D01*
X150937007Y-112564075D01*
X150822993Y-112629901D01*
X150729901Y-112722993D01*
X150664075Y-112837007D01*
X150647037Y-112900591D01*
X150014728Y-112268282D01*
X150014727Y-112268282D01*
X149975380Y-112322440D01*
X149975376Y-112322446D01*
X149970760Y-112331505D01*
X149922781Y-112382297D01*
X149854959Y-112399087D01*
X149788826Y-112376543D01*
X149749794Y-112331493D01*
X149745051Y-112322184D01*
X149745049Y-112322181D01*
X149745048Y-112322179D01*
X149620109Y-112150213D01*
X149469786Y-111999890D01*
X149297820Y-111874951D01*
X149108414Y-111778444D01*
X149108413Y-111778443D01*
X149108412Y-111778443D01*
X148906243Y-111712754D01*
X148906241Y-111712753D01*
X148906240Y-111712753D01*
X148744957Y-111687208D01*
X148696287Y-111679500D01*
X148483713Y-111679500D01*
X148435042Y-111687208D01*
X148273760Y-111712753D01*
X148071585Y-111778444D01*
X147882179Y-111874951D01*
X147710213Y-111999890D01*
X147559890Y-112150213D01*
X147434949Y-112322182D01*
X147430484Y-112330946D01*
X147382509Y-112381742D01*
X147314688Y-112398536D01*
X147248553Y-112375998D01*
X147209516Y-112330946D01*
X147205050Y-112322182D01*
X147080109Y-112150213D01*
X146929786Y-111999890D01*
X146757820Y-111874951D01*
X146568414Y-111778444D01*
X146568413Y-111778443D01*
X146568412Y-111778443D01*
X146366243Y-111712754D01*
X146366241Y-111712753D01*
X146366240Y-111712753D01*
X146204957Y-111687208D01*
X146156287Y-111679500D01*
X145943713Y-111679500D01*
X145895042Y-111687208D01*
X145733760Y-111712753D01*
X145531585Y-111778444D01*
X145342179Y-111874951D01*
X145170213Y-111999890D01*
X145019890Y-112150213D01*
X144894949Y-112322182D01*
X144890484Y-112330946D01*
X144842509Y-112381742D01*
X144774688Y-112398536D01*
X144708553Y-112375998D01*
X144669516Y-112330946D01*
X144665050Y-112322182D01*
X144540109Y-112150213D01*
X144389786Y-111999890D01*
X144217820Y-111874951D01*
X144028414Y-111778444D01*
X144028413Y-111778443D01*
X144028412Y-111778443D01*
X143826243Y-111712754D01*
X143826241Y-111712753D01*
X143826240Y-111712753D01*
X143664957Y-111687208D01*
X143616287Y-111679500D01*
X143403713Y-111679500D01*
X143355042Y-111687208D01*
X143193760Y-111712753D01*
X142991585Y-111778444D01*
X142802179Y-111874951D01*
X142630213Y-111999890D01*
X142479890Y-112150213D01*
X142354949Y-112322182D01*
X142350484Y-112330946D01*
X142302509Y-112381742D01*
X142234688Y-112398536D01*
X142168553Y-112375998D01*
X142129516Y-112330946D01*
X142125050Y-112322182D01*
X142000109Y-112150213D01*
X141849786Y-111999890D01*
X141677820Y-111874951D01*
X141488414Y-111778444D01*
X141488413Y-111778443D01*
X141488412Y-111778443D01*
X141286243Y-111712754D01*
X141286241Y-111712753D01*
X141286240Y-111712753D01*
X141124957Y-111687208D01*
X141076287Y-111679500D01*
X140863713Y-111679500D01*
X140815042Y-111687208D01*
X140653760Y-111712753D01*
X140451585Y-111778444D01*
X140262179Y-111874951D01*
X140090213Y-111999890D01*
X139939890Y-112150213D01*
X139814949Y-112322182D01*
X139810484Y-112330946D01*
X139762509Y-112381742D01*
X139694688Y-112398536D01*
X139628553Y-112375998D01*
X139589516Y-112330946D01*
X139585050Y-112322182D01*
X139460109Y-112150213D01*
X139309786Y-111999890D01*
X139137820Y-111874951D01*
X138948414Y-111778444D01*
X138948413Y-111778443D01*
X138948412Y-111778443D01*
X138746243Y-111712754D01*
X138746241Y-111712753D01*
X138746240Y-111712753D01*
X138584957Y-111687208D01*
X138536287Y-111679500D01*
X138323713Y-111679500D01*
X138275042Y-111687208D01*
X138113760Y-111712753D01*
X137911585Y-111778444D01*
X137722179Y-111874951D01*
X137550213Y-111999890D01*
X137399890Y-112150213D01*
X137274949Y-112322182D01*
X137270484Y-112330946D01*
X137222509Y-112381742D01*
X137154688Y-112398536D01*
X137088553Y-112375998D01*
X137049516Y-112330946D01*
X137045050Y-112322182D01*
X136920109Y-112150213D01*
X136769786Y-111999890D01*
X136597820Y-111874951D01*
X136408414Y-111778444D01*
X136408413Y-111778443D01*
X136408412Y-111778443D01*
X136206243Y-111712754D01*
X136206241Y-111712753D01*
X136206240Y-111712753D01*
X136044957Y-111687208D01*
X135996287Y-111679500D01*
X135783713Y-111679500D01*
X135735042Y-111687208D01*
X135573760Y-111712753D01*
X135371585Y-111778444D01*
X135182179Y-111874951D01*
X135010215Y-111999889D01*
X134896673Y-112113431D01*
X134835350Y-112146915D01*
X134765658Y-112141931D01*
X134709725Y-112100059D01*
X134692810Y-112069082D01*
X134643797Y-111937671D01*
X134643793Y-111937664D01*
X134557547Y-111822455D01*
X134557544Y-111822452D01*
X134442335Y-111736206D01*
X134442328Y-111736202D01*
X134307482Y-111685908D01*
X134307483Y-111685908D01*
X134247883Y-111679501D01*
X134247881Y-111679500D01*
X134247873Y-111679500D01*
X134247864Y-111679500D01*
X132452129Y-111679500D01*
X132452123Y-111679501D01*
X132392516Y-111685908D01*
X132257671Y-111736202D01*
X132257664Y-111736206D01*
X132142455Y-111822452D01*
X132142452Y-111822455D01*
X132056206Y-111937664D01*
X132056202Y-111937671D01*
X132005908Y-112072517D01*
X131999501Y-112132116D01*
X131999500Y-112132135D01*
X129211320Y-112132135D01*
X129117213Y-112038028D01*
X128951613Y-111917715D01*
X128951612Y-111917714D01*
X128951610Y-111917713D01*
X128868527Y-111875380D01*
X128769223Y-111824781D01*
X128574534Y-111761522D01*
X128399995Y-111733878D01*
X128372352Y-111729500D01*
X128167648Y-111729500D01*
X128143329Y-111733351D01*
X127965465Y-111761522D01*
X127770776Y-111824781D01*
X127588386Y-111917715D01*
X127422786Y-112038028D01*
X127278028Y-112182786D01*
X127157715Y-112348386D01*
X127064781Y-112530776D01*
X127001522Y-112725465D01*
X126969500Y-112927648D01*
X126000500Y-112927648D01*
X126000500Y-90542135D01*
X126919500Y-90542135D01*
X126919500Y-92337870D01*
X126919501Y-92337876D01*
X126925908Y-92397483D01*
X126976202Y-92532328D01*
X126976206Y-92532335D01*
X127062452Y-92647544D01*
X127062455Y-92647547D01*
X127177664Y-92733793D01*
X127177671Y-92733797D01*
X127222455Y-92750500D01*
X127312517Y-92784091D01*
X127372127Y-92790500D01*
X127382685Y-92790499D01*
X127449723Y-92810179D01*
X127470372Y-92826818D01*
X128140591Y-93497037D01*
X128077007Y-93514075D01*
X127962993Y-93579901D01*
X127869901Y-93672993D01*
X127804075Y-93787007D01*
X127787037Y-93850591D01*
X127154728Y-93218282D01*
X127154727Y-93218282D01*
X127115380Y-93272439D01*
X127018904Y-93461782D01*
X126953242Y-93663869D01*
X126953242Y-93663872D01*
X126920000Y-93873753D01*
X126920000Y-94086246D01*
X126953242Y-94296127D01*
X126953242Y-94296130D01*
X127018904Y-94498217D01*
X127115375Y-94687550D01*
X127154728Y-94741716D01*
X127787037Y-94109408D01*
X127804075Y-94172993D01*
X127869901Y-94287007D01*
X127962993Y-94380099D01*
X128077007Y-94445925D01*
X128140590Y-94462962D01*
X127508282Y-95095269D01*
X127508282Y-95095270D01*
X127562449Y-95134624D01*
X127751782Y-95231095D01*
X127953870Y-95296757D01*
X128163754Y-95330000D01*
X128376246Y-95330000D01*
X128586127Y-95296757D01*
X128586130Y-95296757D01*
X128788217Y-95231095D01*
X128977554Y-95134622D01*
X129031716Y-95095270D01*
X129031717Y-95095270D01*
X128399408Y-94462962D01*
X128462993Y-94445925D01*
X128577007Y-94380099D01*
X128670099Y-94287007D01*
X128735925Y-94172993D01*
X128752962Y-94109409D01*
X129385270Y-94741717D01*
X129385270Y-94741716D01*
X129424622Y-94687554D01*
X129521095Y-94498217D01*
X129586757Y-94296130D01*
X129586757Y-94296127D01*
X129620000Y-94086246D01*
X129620000Y-93873753D01*
X129586757Y-93663872D01*
X129586757Y-93663869D01*
X129521095Y-93461782D01*
X129424624Y-93272449D01*
X129385270Y-93218282D01*
X129385269Y-93218282D01*
X128752962Y-93850590D01*
X128735925Y-93787007D01*
X128670099Y-93672993D01*
X128577007Y-93579901D01*
X128462993Y-93514075D01*
X128399409Y-93497037D01*
X129069627Y-92826818D01*
X129130950Y-92793333D01*
X129157307Y-92790499D01*
X129167872Y-92790499D01*
X129227483Y-92784091D01*
X129362331Y-92733796D01*
X129452690Y-92666153D01*
X130049500Y-92666153D01*
X130049500Y-92823846D01*
X130080261Y-92978489D01*
X130080264Y-92978501D01*
X130140602Y-93124172D01*
X130140609Y-93124185D01*
X130228210Y-93255288D01*
X130228213Y-93255292D01*
X130339707Y-93366786D01*
X130339711Y-93366789D01*
X130470814Y-93454390D01*
X130470827Y-93454397D01*
X130556084Y-93489711D01*
X130616503Y-93514737D01*
X130771153Y-93545499D01*
X130771156Y-93545500D01*
X130771158Y-93545500D01*
X130928844Y-93545500D01*
X130928845Y-93545499D01*
X131083497Y-93514737D01*
X131229179Y-93454394D01*
X131360289Y-93366789D01*
X131471789Y-93255289D01*
X131559394Y-93124179D01*
X131619737Y-92978497D01*
X131633481Y-92909401D01*
X131645236Y-92850309D01*
X131677621Y-92788398D01*
X131738337Y-92753823D01*
X131766853Y-92750500D01*
X137295065Y-92750500D01*
X137362104Y-92770185D01*
X137363909Y-92771366D01*
X137420821Y-92809394D01*
X137420823Y-92809395D01*
X137420827Y-92809397D01*
X137519599Y-92850309D01*
X137566503Y-92869737D01*
X137668608Y-92890047D01*
X137721846Y-92900637D01*
X137738600Y-92909401D01*
X137757081Y-92913421D01*
X137782124Y-92932168D01*
X137783757Y-92933022D01*
X137785336Y-92934572D01*
X137864181Y-93013416D01*
X137897666Y-93074739D01*
X137900500Y-93101098D01*
X137900500Y-98437904D01*
X137880815Y-98504943D01*
X137845391Y-98541006D01*
X137789711Y-98578210D01*
X137789707Y-98578213D01*
X137678213Y-98689707D01*
X137678210Y-98689711D01*
X137590609Y-98820814D01*
X137590602Y-98820827D01*
X137530264Y-98966498D01*
X137530261Y-98966508D01*
X137499361Y-99121850D01*
X137466976Y-99183761D01*
X137465425Y-99185339D01*
X135819481Y-100831282D01*
X135819477Y-100831287D01*
X135801113Y-100863097D01*
X135801112Y-100863099D01*
X135740423Y-100968215D01*
X135699499Y-101120943D01*
X135699499Y-101120945D01*
X135699499Y-101289046D01*
X135699500Y-101289059D01*
X135699500Y-104563330D01*
X135699499Y-104563348D01*
X135699499Y-104729054D01*
X135699498Y-104729054D01*
X135740423Y-104881785D01*
X135769358Y-104931900D01*
X135769359Y-104931904D01*
X135769360Y-104931904D01*
X135819479Y-105018714D01*
X135819481Y-105018717D01*
X135938349Y-105137585D01*
X135938355Y-105137590D01*
X138465139Y-107664374D01*
X138465149Y-107664385D01*
X138469479Y-107668715D01*
X138469480Y-107668716D01*
X138581284Y-107780520D01*
X138632845Y-107810288D01*
X138668095Y-107830639D01*
X138668097Y-107830641D01*
X138706151Y-107852611D01*
X138718215Y-107859577D01*
X138870943Y-107900501D01*
X138870946Y-107900501D01*
X139036653Y-107900501D01*
X139036669Y-107900500D01*
X142720234Y-107900500D01*
X142787273Y-107920185D01*
X142789125Y-107921398D01*
X142920814Y-108009390D01*
X142920827Y-108009397D01*
X143066498Y-108069735D01*
X143066503Y-108069737D01*
X143221153Y-108100499D01*
X143221156Y-108100500D01*
X143221158Y-108100500D01*
X143378844Y-108100500D01*
X143378845Y-108100499D01*
X143533497Y-108069737D01*
X143679179Y-108009394D01*
X143810289Y-107921789D01*
X143921789Y-107810289D01*
X144009394Y-107679179D01*
X144069737Y-107533497D01*
X144100500Y-107378842D01*
X144100500Y-107221158D01*
X144100500Y-107221155D01*
X144100499Y-107221153D01*
X144090196Y-107169358D01*
X144069737Y-107066503D01*
X144037929Y-106989711D01*
X144009397Y-106920827D01*
X144009390Y-106920814D01*
X143921789Y-106789711D01*
X143921786Y-106789707D01*
X143810292Y-106678213D01*
X143810288Y-106678210D01*
X143679185Y-106590609D01*
X143679172Y-106590602D01*
X143533501Y-106530264D01*
X143533489Y-106530261D01*
X143378845Y-106499500D01*
X143378842Y-106499500D01*
X143221158Y-106499500D01*
X143221155Y-106499500D01*
X143066510Y-106530261D01*
X143066498Y-106530264D01*
X142920827Y-106590602D01*
X142920814Y-106590609D01*
X142789125Y-106678602D01*
X142722447Y-106699480D01*
X142720234Y-106699500D01*
X139250097Y-106699500D01*
X139183058Y-106679815D01*
X139162416Y-106663181D01*
X136936819Y-104437584D01*
X136903334Y-104376261D01*
X136900500Y-104349903D01*
X136900500Y-101500097D01*
X136920185Y-101433058D01*
X136936819Y-101412416D01*
X137619136Y-100730099D01*
X138314662Y-100034572D01*
X138375983Y-100001089D01*
X138378150Y-100000638D01*
X138436085Y-99989113D01*
X138533497Y-99969737D01*
X138664175Y-99915609D01*
X138679172Y-99909397D01*
X138679172Y-99909396D01*
X138679179Y-99909394D01*
X138810289Y-99821789D01*
X138921789Y-99710289D01*
X139009394Y-99579179D01*
X139069737Y-99433497D01*
X139100500Y-99278842D01*
X139100500Y-99121158D01*
X139100500Y-99121156D01*
X139099903Y-99115098D01*
X139100571Y-99115032D01*
X139099272Y-99101274D01*
X139099455Y-99085690D01*
X139101501Y-99078057D01*
X139101501Y-98919943D01*
X139101500Y-98919939D01*
X139101500Y-92890060D01*
X139101501Y-92890047D01*
X139101501Y-92721944D01*
X139098301Y-92710000D01*
X139060577Y-92569216D01*
X139027254Y-92511498D01*
X138981524Y-92432290D01*
X138981518Y-92432282D01*
X138634573Y-92085337D01*
X138601088Y-92024014D01*
X138600637Y-92021847D01*
X138588019Y-91958412D01*
X138569737Y-91866503D01*
X138534440Y-91781287D01*
X138509397Y-91720827D01*
X138509390Y-91720814D01*
X138421789Y-91589711D01*
X138421786Y-91589707D01*
X138310292Y-91478213D01*
X138310288Y-91478210D01*
X138179185Y-91390609D01*
X138179172Y-91390602D01*
X138033501Y-91330264D01*
X138033489Y-91330261D01*
X137878845Y-91299500D01*
X137878842Y-91299500D01*
X137721158Y-91299500D01*
X137721155Y-91299500D01*
X137566510Y-91330261D01*
X137566498Y-91330264D01*
X137420827Y-91390602D01*
X137420814Y-91390609D01*
X137289711Y-91478210D01*
X137289707Y-91478213D01*
X137254742Y-91513180D01*
X137193420Y-91546666D01*
X137167060Y-91549500D01*
X136278269Y-91549500D01*
X136211230Y-91529815D01*
X136165475Y-91477011D01*
X136155531Y-91407853D01*
X136184556Y-91344297D01*
X136205626Y-91325707D01*
X136205581Y-91325653D01*
X136207119Y-91324390D01*
X136209379Y-91322397D01*
X136210289Y-91321789D01*
X136321789Y-91210289D01*
X136409394Y-91079179D01*
X136469737Y-90933497D01*
X136496332Y-90799795D01*
X136500638Y-90778150D01*
X136533023Y-90716239D01*
X136534518Y-90714716D01*
X136812416Y-90436819D01*
X136873739Y-90403334D01*
X136900097Y-90400500D01*
X141350901Y-90400500D01*
X141417940Y-90420185D01*
X141463695Y-90472989D01*
X141473639Y-90542147D01*
X141444614Y-90605703D01*
X141438582Y-90612181D01*
X140731286Y-91319478D01*
X140619481Y-91431282D01*
X140619479Y-91431285D01*
X140574385Y-91509392D01*
X140574384Y-91509393D01*
X140540423Y-91568214D01*
X140540423Y-91568215D01*
X140499499Y-91720943D01*
X140499499Y-91720945D01*
X140499499Y-91889046D01*
X140499500Y-91889059D01*
X140499500Y-94020234D01*
X140479815Y-94087273D01*
X140478602Y-94089125D01*
X140390609Y-94220814D01*
X140390602Y-94220827D01*
X140330264Y-94366498D01*
X140330261Y-94366508D01*
X140299362Y-94521848D01*
X140266977Y-94583759D01*
X140265426Y-94585337D01*
X139731286Y-95119478D01*
X139619481Y-95231282D01*
X139619479Y-95231285D01*
X139608674Y-95250000D01*
X139581397Y-95297246D01*
X139540423Y-95368215D01*
X139499499Y-95520943D01*
X139499499Y-95520945D01*
X139499499Y-95689046D01*
X139499500Y-95689059D01*
X139499500Y-103020234D01*
X139479815Y-103087273D01*
X139478602Y-103089125D01*
X139390609Y-103220814D01*
X139390602Y-103220827D01*
X139330264Y-103366498D01*
X139330261Y-103366510D01*
X139299500Y-103521153D01*
X139299500Y-103678846D01*
X139330261Y-103833489D01*
X139330264Y-103833501D01*
X139390602Y-103979172D01*
X139390609Y-103979185D01*
X139478210Y-104110288D01*
X139478213Y-104110292D01*
X139589707Y-104221786D01*
X139589711Y-104221789D01*
X139720814Y-104309390D01*
X139720827Y-104309397D01*
X139818619Y-104349903D01*
X139866503Y-104369737D01*
X140021153Y-104400499D01*
X140021156Y-104400500D01*
X140021158Y-104400500D01*
X140178844Y-104400500D01*
X140178845Y-104400499D01*
X140333497Y-104369737D01*
X140479179Y-104309394D01*
X140610289Y-104221789D01*
X140721789Y-104110289D01*
X140809394Y-103979179D01*
X140869737Y-103833497D01*
X140900500Y-103678842D01*
X140900500Y-103521158D01*
X140900500Y-103521155D01*
X140900499Y-103521153D01*
X140869738Y-103366510D01*
X140869737Y-103366503D01*
X140869735Y-103366498D01*
X140809397Y-103220827D01*
X140809390Y-103220814D01*
X140721398Y-103089125D01*
X140700520Y-103022447D01*
X140700500Y-103020234D01*
X140700500Y-99504785D01*
X140720185Y-99437746D01*
X140772989Y-99391991D01*
X140842147Y-99382047D01*
X140905703Y-99411072D01*
X140912181Y-99417104D01*
X142257581Y-100762504D01*
X142291066Y-100823827D01*
X142291517Y-100825993D01*
X142322417Y-100981335D01*
X142322420Y-100981345D01*
X142382758Y-101127016D01*
X142382765Y-101127029D01*
X142470366Y-101258132D01*
X142470369Y-101258136D01*
X142581866Y-101369633D01*
X142676789Y-101433058D01*
X142712977Y-101457238D01*
X142767053Y-101479636D01*
X142807281Y-101506516D01*
X145396662Y-104095897D01*
X145430147Y-104157220D01*
X145425163Y-104226912D01*
X145396664Y-104271257D01*
X145378212Y-104289708D01*
X145378208Y-104289714D01*
X145290609Y-104420814D01*
X145290602Y-104420827D01*
X145230264Y-104566498D01*
X145230261Y-104566510D01*
X145199500Y-104721153D01*
X145199500Y-104878846D01*
X145230261Y-105033489D01*
X145230264Y-105033501D01*
X145290602Y-105179172D01*
X145290609Y-105179185D01*
X145358861Y-105281330D01*
X145372829Y-105302235D01*
X145378602Y-105310874D01*
X145399480Y-105377551D01*
X145399500Y-105379765D01*
X145399500Y-106699903D01*
X145379815Y-106766942D01*
X145363181Y-106787584D01*
X143687584Y-108463181D01*
X143626261Y-108496666D01*
X143599903Y-108499500D01*
X138700098Y-108499500D01*
X138633059Y-108479815D01*
X138612417Y-108463181D01*
X137634573Y-107485337D01*
X137601088Y-107424014D01*
X137600637Y-107421847D01*
X137600499Y-107421153D01*
X137569737Y-107266503D01*
X137550955Y-107221158D01*
X137509397Y-107120827D01*
X137509390Y-107120814D01*
X137421789Y-106989711D01*
X137421786Y-106989707D01*
X137310292Y-106878213D01*
X137310288Y-106878210D01*
X137179185Y-106790609D01*
X137179172Y-106790602D01*
X137033501Y-106730264D01*
X137033489Y-106730261D01*
X136878845Y-106699500D01*
X136878842Y-106699500D01*
X136721158Y-106699500D01*
X136721155Y-106699500D01*
X136566510Y-106730261D01*
X136566498Y-106730264D01*
X136420827Y-106790602D01*
X136420814Y-106790609D01*
X136289711Y-106878210D01*
X136289707Y-106878213D01*
X136178213Y-106989707D01*
X136178210Y-106989711D01*
X136090609Y-107120814D01*
X136090602Y-107120827D01*
X136030264Y-107266498D01*
X136030261Y-107266510D01*
X135999500Y-107421153D01*
X135999500Y-107578846D01*
X136030261Y-107733489D01*
X136030264Y-107733501D01*
X136090602Y-107879172D01*
X136090609Y-107879185D01*
X136178210Y-108010288D01*
X136178213Y-108010292D01*
X136289707Y-108121786D01*
X136289711Y-108121789D01*
X136420814Y-108209390D01*
X136420827Y-108209397D01*
X136566498Y-108269735D01*
X136566503Y-108269737D01*
X136631147Y-108282595D01*
X136721849Y-108300638D01*
X136783760Y-108333023D01*
X136785337Y-108334572D01*
X138031284Y-109580520D01*
X138031286Y-109580521D01*
X138031290Y-109580524D01*
X138168209Y-109659573D01*
X138168216Y-109659577D01*
X138320943Y-109700501D01*
X138320945Y-109700501D01*
X138486654Y-109700501D01*
X138486670Y-109700500D01*
X143813331Y-109700500D01*
X143813347Y-109700501D01*
X143820943Y-109700501D01*
X143979054Y-109700501D01*
X143979057Y-109700501D01*
X144131785Y-109659577D01*
X144181904Y-109630639D01*
X144268716Y-109580520D01*
X144380520Y-109468716D01*
X144380520Y-109468714D01*
X144390728Y-109458507D01*
X144390730Y-109458504D01*
X146358506Y-107490728D01*
X146358511Y-107490724D01*
X146368714Y-107480520D01*
X146368716Y-107480520D01*
X146480520Y-107368716D01*
X146559577Y-107231784D01*
X146600500Y-107079057D01*
X146600500Y-106894168D01*
X146620185Y-106827129D01*
X146672989Y-106781374D01*
X146742147Y-106771430D01*
X146793392Y-106791067D01*
X146820812Y-106809389D01*
X146820827Y-106809397D01*
X146966498Y-106869735D01*
X146966503Y-106869737D01*
X147121153Y-106900499D01*
X147121156Y-106900500D01*
X147121158Y-106900500D01*
X147278844Y-106900500D01*
X147278845Y-106900499D01*
X147433497Y-106869737D01*
X147579179Y-106809394D01*
X147710289Y-106721789D01*
X147821789Y-106610289D01*
X147909394Y-106479179D01*
X147969737Y-106333497D01*
X148000500Y-106178842D01*
X148000500Y-106021158D01*
X148000500Y-106021155D01*
X148000499Y-106021153D01*
X147982052Y-105928414D01*
X147969737Y-105866503D01*
X147925733Y-105760267D01*
X147909397Y-105720827D01*
X147909390Y-105720814D01*
X147821789Y-105589711D01*
X147821786Y-105589707D01*
X147710292Y-105478213D01*
X147710288Y-105478210D01*
X147579185Y-105390609D01*
X147579172Y-105390602D01*
X147433501Y-105330264D01*
X147433491Y-105330261D01*
X147350308Y-105313715D01*
X147288397Y-105281330D01*
X147253823Y-105220614D01*
X147250500Y-105192098D01*
X147250500Y-104420946D01*
X147250500Y-104420943D01*
X147250468Y-104420821D01*
X147209577Y-104268215D01*
X147180639Y-104218095D01*
X147130520Y-104131284D01*
X147018716Y-104019480D01*
X147018715Y-104019479D01*
X147014385Y-104015149D01*
X147014374Y-104015139D01*
X143928143Y-100928908D01*
X143894658Y-100867585D01*
X143892421Y-100829075D01*
X143892656Y-100826688D01*
X143892656Y-100668999D01*
X143892655Y-100668997D01*
X143874952Y-100580000D01*
X143861893Y-100514347D01*
X143822424Y-100419059D01*
X143801553Y-100368671D01*
X143801546Y-100368658D01*
X143713945Y-100237555D01*
X143713942Y-100237551D01*
X143602448Y-100126057D01*
X143602444Y-100126054D01*
X143471341Y-100038453D01*
X143471328Y-100038446D01*
X143325657Y-99978108D01*
X143325647Y-99978105D01*
X143170305Y-99947205D01*
X143108394Y-99914820D01*
X143106816Y-99913269D01*
X141186819Y-97993272D01*
X141153334Y-97931949D01*
X141150500Y-97905591D01*
X141150500Y-96300039D01*
X141170185Y-96233000D01*
X141186815Y-96212362D01*
X142059506Y-95339670D01*
X142059511Y-95339667D01*
X142069714Y-95329463D01*
X142069716Y-95329463D01*
X142181520Y-95217659D01*
X142246404Y-95105276D01*
X142260577Y-95080728D01*
X142301501Y-94928000D01*
X142301501Y-94769885D01*
X142301501Y-94762290D01*
X142301500Y-94762272D01*
X142301500Y-94271544D01*
X142300500Y-94256278D01*
X142300500Y-93305912D01*
X142320185Y-93238873D01*
X142372989Y-93193118D01*
X142400302Y-93184296D01*
X142473497Y-93169737D01*
X142619179Y-93109394D01*
X142750289Y-93021789D01*
X142861789Y-92910289D01*
X142949394Y-92779179D01*
X143009737Y-92633497D01*
X143040500Y-92478842D01*
X143040500Y-92321158D01*
X143040500Y-92321155D01*
X143040499Y-92321153D01*
X143040227Y-92319786D01*
X143009737Y-92166503D01*
X142989667Y-92118050D01*
X142949397Y-92020827D01*
X142949390Y-92020814D01*
X142861789Y-91889711D01*
X142861786Y-91889707D01*
X142750291Y-91778212D01*
X142749379Y-91777603D01*
X142749008Y-91777160D01*
X142745581Y-91774347D01*
X142746114Y-91773696D01*
X142704573Y-91723990D01*
X142695866Y-91654666D01*
X142726020Y-91591638D01*
X142785463Y-91554918D01*
X142818269Y-91550500D01*
X147399903Y-91550500D01*
X147466942Y-91570185D01*
X147487584Y-91586819D01*
X147957492Y-92056727D01*
X147990977Y-92118050D01*
X147993811Y-92144408D01*
X147993811Y-93420234D01*
X147988482Y-93438379D01*
X147988145Y-93457288D01*
X147974644Y-93485506D01*
X147974126Y-93487273D01*
X147972913Y-93489126D01*
X147904094Y-93592119D01*
X147850481Y-93636923D01*
X147781156Y-93645630D01*
X147718129Y-93615475D01*
X147697890Y-93592118D01*
X147616100Y-93469711D01*
X147616097Y-93469707D01*
X147504603Y-93358213D01*
X147504599Y-93358210D01*
X147373496Y-93270609D01*
X147373483Y-93270602D01*
X147227812Y-93210264D01*
X147227800Y-93210261D01*
X147073156Y-93179500D01*
X147073153Y-93179500D01*
X146915469Y-93179500D01*
X146915466Y-93179500D01*
X146760821Y-93210261D01*
X146760809Y-93210264D01*
X146641763Y-93259574D01*
X146572293Y-93267043D01*
X146546859Y-93259574D01*
X146427812Y-93210264D01*
X146427800Y-93210261D01*
X146273156Y-93179500D01*
X146273153Y-93179500D01*
X146115469Y-93179500D01*
X146115466Y-93179500D01*
X145960821Y-93210261D01*
X145960809Y-93210264D01*
X145815138Y-93270602D01*
X145815125Y-93270609D01*
X145684022Y-93358210D01*
X145684018Y-93358213D01*
X145572524Y-93469707D01*
X145572521Y-93469711D01*
X145484920Y-93600814D01*
X145484913Y-93600827D01*
X145424575Y-93746498D01*
X145424572Y-93746510D01*
X145393811Y-93901153D01*
X145393811Y-94058846D01*
X145424572Y-94213489D01*
X145424575Y-94213501D01*
X145484913Y-94359172D01*
X145484920Y-94359185D01*
X145572913Y-94490874D01*
X145593791Y-94557551D01*
X145593811Y-94559765D01*
X145593811Y-101140541D01*
X145593810Y-101140559D01*
X145593810Y-101306265D01*
X145593809Y-101306265D01*
X145634734Y-101458995D01*
X145634735Y-101458999D01*
X145659969Y-101502706D01*
X145659970Y-101502706D01*
X145713788Y-101595923D01*
X145713792Y-101595928D01*
X145832660Y-101714796D01*
X145832666Y-101714801D01*
X152882239Y-108764374D01*
X152882249Y-108764385D01*
X152886579Y-108768715D01*
X152886580Y-108768716D01*
X152998384Y-108880520D01*
X152998386Y-108880521D01*
X152998390Y-108880524D01*
X153135309Y-108959573D01*
X153135316Y-108959577D01*
X153247119Y-108989534D01*
X153288042Y-109000500D01*
X153288043Y-109000500D01*
X160699903Y-109000500D01*
X160766942Y-109020185D01*
X160787584Y-109036819D01*
X161215425Y-109464660D01*
X161248910Y-109525983D01*
X161249361Y-109528149D01*
X161280261Y-109683491D01*
X161280264Y-109683501D01*
X161340602Y-109829172D01*
X161340609Y-109829185D01*
X161428210Y-109960288D01*
X161428213Y-109960292D01*
X161539707Y-110071786D01*
X161539711Y-110071789D01*
X161670814Y-110159390D01*
X161670827Y-110159397D01*
X161816498Y-110219735D01*
X161816503Y-110219737D01*
X161971153Y-110250499D01*
X161971156Y-110250500D01*
X161971158Y-110250500D01*
X162128844Y-110250500D01*
X162128845Y-110250499D01*
X162283497Y-110219737D01*
X162429179Y-110159394D01*
X162560289Y-110071789D01*
X162560307Y-110071770D01*
X162562517Y-110069958D01*
X162563925Y-110069359D01*
X162565354Y-110068405D01*
X162565534Y-110068675D01*
X162626822Y-110042633D01*
X162695692Y-110054412D01*
X162728881Y-110078116D01*
X162965425Y-110314660D01*
X162998910Y-110375983D01*
X162999361Y-110378149D01*
X163030261Y-110533491D01*
X163030264Y-110533501D01*
X163090602Y-110679172D01*
X163090609Y-110679185D01*
X163178210Y-110810288D01*
X163178213Y-110810292D01*
X163289707Y-110921786D01*
X163289711Y-110921789D01*
X163420814Y-111009390D01*
X163420827Y-111009397D01*
X163566498Y-111069735D01*
X163566503Y-111069737D01*
X163721153Y-111100499D01*
X163721156Y-111100500D01*
X163721158Y-111100500D01*
X163878844Y-111100500D01*
X163878845Y-111100499D01*
X164033497Y-111069737D01*
X164179179Y-111009394D01*
X164310289Y-110921789D01*
X164421789Y-110810289D01*
X164509394Y-110679179D01*
X164569737Y-110533497D01*
X164600500Y-110378842D01*
X164600500Y-110221158D01*
X164600500Y-110221155D01*
X164600499Y-110221153D01*
X164570788Y-110071789D01*
X164569737Y-110066503D01*
X164559850Y-110042633D01*
X164509397Y-109920827D01*
X164509390Y-109920814D01*
X164421789Y-109789711D01*
X164421786Y-109789707D01*
X164310292Y-109678213D01*
X164310288Y-109678210D01*
X164179185Y-109590609D01*
X164179172Y-109590602D01*
X164033501Y-109530264D01*
X164033491Y-109530261D01*
X163878149Y-109499361D01*
X163816238Y-109466976D01*
X163814660Y-109465425D01*
X161687590Y-107338355D01*
X161687588Y-107338352D01*
X161568717Y-107219481D01*
X161568716Y-107219480D01*
X161481904Y-107169360D01*
X161481904Y-107169359D01*
X161481900Y-107169358D01*
X161431785Y-107140423D01*
X161279057Y-107099499D01*
X161120943Y-107099499D01*
X161113347Y-107099499D01*
X161113331Y-107099500D01*
X153600097Y-107099500D01*
X153533058Y-107079815D01*
X153512416Y-107063181D01*
X147631130Y-101181895D01*
X147597645Y-101120572D01*
X147594811Y-101094214D01*
X147594811Y-100356285D01*
X147601049Y-100335039D01*
X147602629Y-100312953D01*
X147610701Y-100302169D01*
X147614496Y-100289246D01*
X147631228Y-100274747D01*
X147644499Y-100257019D01*
X147657121Y-100252310D01*
X147667300Y-100243491D01*
X147689215Y-100240339D01*
X147709963Y-100232601D01*
X147723125Y-100235464D01*
X147736458Y-100233547D01*
X147756600Y-100242745D01*
X147778236Y-100247452D01*
X147795962Y-100260721D01*
X147800014Y-100262572D01*
X147806476Y-100268588D01*
X147831284Y-100293396D01*
X147831286Y-100293397D01*
X147838355Y-100300466D01*
X153233970Y-105696081D01*
X153267455Y-105757404D01*
X153267906Y-105759570D01*
X153298806Y-105914912D01*
X153298809Y-105914922D01*
X153359147Y-106060593D01*
X153359154Y-106060606D01*
X153446755Y-106191709D01*
X153446758Y-106191713D01*
X153558252Y-106303207D01*
X153558256Y-106303210D01*
X153689359Y-106390811D01*
X153689372Y-106390818D01*
X153808361Y-106440104D01*
X153835048Y-106451158D01*
X153975883Y-106479172D01*
X153989698Y-106481920D01*
X153989701Y-106481921D01*
X153989703Y-106481921D01*
X154147389Y-106481921D01*
X154147390Y-106481920D01*
X154302042Y-106451158D01*
X154447724Y-106390815D01*
X154578834Y-106303210D01*
X154690334Y-106191710D01*
X154777939Y-106060600D01*
X154838282Y-105914918D01*
X154869045Y-105760263D01*
X154869045Y-105602579D01*
X154869045Y-105602576D01*
X154869044Y-105602574D01*
X154857515Y-105544616D01*
X154838282Y-105447924D01*
X154814542Y-105390609D01*
X154777942Y-105302248D01*
X154777935Y-105302235D01*
X154690334Y-105171132D01*
X154690331Y-105171128D01*
X154578837Y-105059634D01*
X154578833Y-105059631D01*
X154447730Y-104972030D01*
X154447717Y-104972023D01*
X154302046Y-104911685D01*
X154302036Y-104911682D01*
X154146694Y-104880782D01*
X154084783Y-104848397D01*
X154083205Y-104846846D01*
X149614019Y-100377660D01*
X149580534Y-100316337D01*
X149585518Y-100246645D01*
X149627390Y-100190712D01*
X149692854Y-100166295D01*
X149761127Y-100181147D01*
X149770591Y-100186877D01*
X149815125Y-100216634D01*
X149815138Y-100216641D01*
X149960809Y-100276979D01*
X149960814Y-100276981D01*
X150087442Y-100302169D01*
X150115464Y-100307743D01*
X150115467Y-100307744D01*
X150115469Y-100307744D01*
X150273155Y-100307744D01*
X150273156Y-100307743D01*
X150427808Y-100276981D01*
X150573490Y-100216638D01*
X150704600Y-100129033D01*
X150816100Y-100017533D01*
X150863092Y-99947205D01*
X150884204Y-99915609D01*
X150937816Y-99870804D01*
X150987306Y-99860500D01*
X151073155Y-99860500D01*
X151073156Y-99860499D01*
X151227808Y-99829737D01*
X151373490Y-99769394D01*
X151504600Y-99681789D01*
X151616100Y-99570289D01*
X151703705Y-99439179D01*
X151764048Y-99293497D01*
X151794811Y-99138842D01*
X151794811Y-98981158D01*
X151794811Y-98981155D01*
X151794810Y-98981153D01*
X151785331Y-98933501D01*
X151764048Y-98826503D01*
X151761697Y-98820827D01*
X151703708Y-98680827D01*
X151703701Y-98680814D01*
X151615709Y-98549125D01*
X151594831Y-98482447D01*
X151594811Y-98480234D01*
X151594811Y-96555786D01*
X151614496Y-96488747D01*
X151631130Y-96468105D01*
X156012417Y-92086819D01*
X156073740Y-92053334D01*
X156100098Y-92050500D01*
X167435501Y-92050500D01*
X167502540Y-92070185D01*
X167548295Y-92122989D01*
X167559501Y-92174500D01*
X167559501Y-92337876D01*
X167565908Y-92397483D01*
X167616202Y-92532328D01*
X167616206Y-92532335D01*
X167702452Y-92647544D01*
X167702455Y-92647547D01*
X167817664Y-92733793D01*
X167817671Y-92733797D01*
X167949082Y-92782810D01*
X168005016Y-92824681D01*
X168029433Y-92890145D01*
X168014582Y-92958418D01*
X167993431Y-92986673D01*
X167879889Y-93100215D01*
X167754951Y-93272179D01*
X167658444Y-93461585D01*
X167658443Y-93461587D01*
X167658443Y-93461588D01*
X167655805Y-93469707D01*
X167592753Y-93663760D01*
X167576479Y-93766510D01*
X167559500Y-93873713D01*
X167559500Y-94086287D01*
X167560042Y-94089711D01*
X167592754Y-94296244D01*
X167592754Y-94296247D01*
X167606491Y-94338523D01*
X167608486Y-94408364D01*
X167576241Y-94464522D01*
X162191286Y-99849478D01*
X162079481Y-99961282D01*
X162079479Y-99961284D01*
X162056839Y-100000500D01*
X162047005Y-100017533D01*
X162034931Y-100038446D01*
X162002279Y-100095001D01*
X162000423Y-100098215D01*
X161959499Y-100250943D01*
X161959499Y-100250945D01*
X161959499Y-100419046D01*
X161959500Y-100419059D01*
X161959500Y-102725500D01*
X161939815Y-102792539D01*
X161887011Y-102838294D01*
X161835500Y-102849500D01*
X160373906Y-102849500D01*
X160306867Y-102829815D01*
X160261112Y-102777011D01*
X160251168Y-102707853D01*
X160280193Y-102644297D01*
X160326454Y-102610939D01*
X160399172Y-102580818D01*
X160399172Y-102580817D01*
X160399179Y-102580815D01*
X160530289Y-102493210D01*
X160641789Y-102381710D01*
X160729394Y-102250600D01*
X160789737Y-102104918D01*
X160820500Y-101950263D01*
X160820500Y-101792579D01*
X160820500Y-101792576D01*
X160820499Y-101792574D01*
X160817950Y-101779758D01*
X160789737Y-101637924D01*
X160772342Y-101595928D01*
X160729397Y-101492248D01*
X160729390Y-101492235D01*
X160641789Y-101361132D01*
X160641786Y-101361128D01*
X160530292Y-101249634D01*
X160530288Y-101249631D01*
X160399185Y-101162030D01*
X160399172Y-101162023D01*
X160253501Y-101101685D01*
X160253489Y-101101682D01*
X160098845Y-101070921D01*
X160098842Y-101070921D01*
X159941158Y-101070921D01*
X159941155Y-101070921D01*
X159786510Y-101101682D01*
X159786498Y-101101685D01*
X159640827Y-101162023D01*
X159640814Y-101162030D01*
X159509125Y-101250023D01*
X159442447Y-101270901D01*
X159440234Y-101270921D01*
X157671519Y-101270921D01*
X157604480Y-101251236D01*
X157583838Y-101234602D01*
X155034573Y-98685337D01*
X155001088Y-98624014D01*
X155000637Y-98621847D01*
X154999300Y-98615127D01*
X154969737Y-98466503D01*
X154957891Y-98437904D01*
X154909397Y-98320827D01*
X154909390Y-98320814D01*
X154821789Y-98189711D01*
X154821786Y-98189707D01*
X154710292Y-98078213D01*
X154710288Y-98078210D01*
X154579185Y-97990609D01*
X154579172Y-97990602D01*
X154433501Y-97930264D01*
X154433489Y-97930261D01*
X154278845Y-97899500D01*
X154278842Y-97899500D01*
X154121158Y-97899500D01*
X154121155Y-97899500D01*
X153966510Y-97930261D01*
X153966498Y-97930264D01*
X153820827Y-97990602D01*
X153820814Y-97990609D01*
X153689711Y-98078210D01*
X153689707Y-98078213D01*
X153578213Y-98189707D01*
X153578210Y-98189711D01*
X153490609Y-98320814D01*
X153490602Y-98320827D01*
X153430264Y-98466498D01*
X153430261Y-98466510D01*
X153399500Y-98621153D01*
X153399500Y-98778846D01*
X153430261Y-98933489D01*
X153430264Y-98933501D01*
X153490602Y-99079172D01*
X153490609Y-99079185D01*
X153578210Y-99210288D01*
X153578213Y-99210292D01*
X153689707Y-99321786D01*
X153689711Y-99321789D01*
X153820814Y-99409390D01*
X153820827Y-99409397D01*
X153892743Y-99439185D01*
X153966503Y-99469737D01*
X154031147Y-99482595D01*
X154121849Y-99500638D01*
X154183760Y-99533023D01*
X154185338Y-99534573D01*
X157002705Y-102351941D01*
X157002707Y-102351942D01*
X157002711Y-102351945D01*
X157139630Y-102430994D01*
X157139637Y-102430998D01*
X157292364Y-102471922D01*
X157292366Y-102471922D01*
X157458075Y-102471922D01*
X157458091Y-102471921D01*
X159440234Y-102471921D01*
X159507273Y-102491606D01*
X159509125Y-102492819D01*
X159640814Y-102580811D01*
X159640827Y-102580818D01*
X159713546Y-102610939D01*
X159767950Y-102654780D01*
X159790015Y-102721074D01*
X159772736Y-102788773D01*
X159721599Y-102836384D01*
X159666094Y-102849500D01*
X155519766Y-102849500D01*
X155452727Y-102829815D01*
X155450875Y-102828602D01*
X155319185Y-102740609D01*
X155319172Y-102740602D01*
X155173501Y-102680264D01*
X155173489Y-102680261D01*
X155018845Y-102649500D01*
X155018842Y-102649500D01*
X154861158Y-102649500D01*
X154861155Y-102649500D01*
X154706510Y-102680261D01*
X154706498Y-102680264D01*
X154560827Y-102740602D01*
X154560814Y-102740609D01*
X154429711Y-102828210D01*
X154429707Y-102828213D01*
X154318213Y-102939707D01*
X154318210Y-102939711D01*
X154230609Y-103070814D01*
X154230602Y-103070827D01*
X154170264Y-103216498D01*
X154170261Y-103216510D01*
X154139500Y-103371153D01*
X154139500Y-103528846D01*
X154170261Y-103683489D01*
X154170264Y-103683501D01*
X154230602Y-103829172D01*
X154230609Y-103829185D01*
X154318210Y-103960288D01*
X154318213Y-103960292D01*
X154429707Y-104071786D01*
X154429711Y-104071789D01*
X154560814Y-104159390D01*
X154560827Y-104159397D01*
X154702539Y-104218095D01*
X154706503Y-104219737D01*
X154861078Y-104250484D01*
X154861153Y-104250499D01*
X154861156Y-104250500D01*
X154861158Y-104250500D01*
X155018844Y-104250500D01*
X155018845Y-104250499D01*
X155173497Y-104219737D01*
X155319179Y-104159394D01*
X155375806Y-104121557D01*
X155450875Y-104071398D01*
X155517553Y-104050520D01*
X155519766Y-104050500D01*
X162480943Y-104050500D01*
X166649903Y-104050500D01*
X166716942Y-104070185D01*
X166737584Y-104086819D01*
X170116241Y-107465476D01*
X170149726Y-107526799D01*
X170146492Y-107591473D01*
X170132753Y-107633757D01*
X170109509Y-107780520D01*
X170099500Y-107843713D01*
X170099500Y-108056287D01*
X170132754Y-108266243D01*
X170196743Y-108463181D01*
X170198444Y-108468414D01*
X170294951Y-108657820D01*
X170419890Y-108829786D01*
X170570213Y-108980109D01*
X170742179Y-109105048D01*
X170742181Y-109105049D01*
X170742184Y-109105051D01*
X170931588Y-109201557D01*
X171133757Y-109267246D01*
X171343713Y-109300500D01*
X171343714Y-109300500D01*
X171556286Y-109300500D01*
X171556287Y-109300500D01*
X171766243Y-109267246D01*
X171968412Y-109201557D01*
X172157816Y-109105051D01*
X172274625Y-109020185D01*
X172329786Y-108980109D01*
X172329788Y-108980106D01*
X172329792Y-108980104D01*
X172480104Y-108829792D01*
X172480106Y-108829788D01*
X172480109Y-108829786D01*
X172605048Y-108657820D01*
X172605047Y-108657820D01*
X172605051Y-108657816D01*
X172701557Y-108468412D01*
X172767246Y-108266243D01*
X172800500Y-108056287D01*
X172800500Y-107843713D01*
X172767246Y-107633757D01*
X172701557Y-107431588D01*
X172605051Y-107242184D01*
X172605049Y-107242181D01*
X172605048Y-107242179D01*
X172480109Y-107070213D01*
X172329786Y-106919890D01*
X172157820Y-106794951D01*
X172157115Y-106794591D01*
X172149054Y-106790485D01*
X172098259Y-106742512D01*
X172081463Y-106674692D01*
X172103999Y-106608556D01*
X172149054Y-106569515D01*
X172157816Y-106565051D01*
X172248040Y-106499500D01*
X172329786Y-106440109D01*
X172329788Y-106440106D01*
X172329792Y-106440104D01*
X172480104Y-106289792D01*
X172480106Y-106289788D01*
X172480109Y-106289786D01*
X172605048Y-106117820D01*
X172605047Y-106117820D01*
X172605051Y-106117816D01*
X172701557Y-105928412D01*
X172767246Y-105726243D01*
X172800500Y-105516287D01*
X172800500Y-105303713D01*
X172767246Y-105093757D01*
X172701557Y-104891588D01*
X172605051Y-104702184D01*
X172605049Y-104702181D01*
X172605048Y-104702179D01*
X172480109Y-104530213D01*
X172329786Y-104379890D01*
X172157820Y-104254951D01*
X172157115Y-104254591D01*
X172149054Y-104250485D01*
X172098259Y-104202512D01*
X172081463Y-104134692D01*
X172103999Y-104068556D01*
X172149054Y-104029515D01*
X172157816Y-104025051D01*
X172220954Y-103979179D01*
X172329786Y-103900109D01*
X172329788Y-103900106D01*
X172329792Y-103900104D01*
X172480104Y-103749792D01*
X172480106Y-103749788D01*
X172480109Y-103749786D01*
X172605048Y-103577820D01*
X172605047Y-103577820D01*
X172605051Y-103577816D01*
X172701557Y-103388412D01*
X172767246Y-103186243D01*
X172800500Y-102976287D01*
X172800500Y-102763713D01*
X172767246Y-102553757D01*
X172701557Y-102351588D01*
X172605051Y-102162184D01*
X172605049Y-102162181D01*
X172605048Y-102162179D01*
X172480109Y-101990213D01*
X172366181Y-101876285D01*
X172332696Y-101814962D01*
X172337680Y-101745270D01*
X172379552Y-101689337D01*
X172410529Y-101672422D01*
X172542086Y-101623354D01*
X172542093Y-101623350D01*
X172657187Y-101537190D01*
X172657190Y-101537187D01*
X172743350Y-101422093D01*
X172743354Y-101422086D01*
X172793596Y-101287379D01*
X172793598Y-101287372D01*
X172799999Y-101227844D01*
X172800000Y-101227827D01*
X172800000Y-100580000D01*
X171883012Y-100580000D01*
X171915925Y-100522993D01*
X171950000Y-100395826D01*
X171950000Y-100264174D01*
X171915925Y-100137007D01*
X171883012Y-100080000D01*
X172800000Y-100080000D01*
X172800000Y-99432172D01*
X172799999Y-99432155D01*
X172793598Y-99372627D01*
X172793596Y-99372620D01*
X172743354Y-99237913D01*
X172743350Y-99237906D01*
X172657190Y-99122812D01*
X172657187Y-99122809D01*
X172542093Y-99036649D01*
X172542086Y-99036645D01*
X172407379Y-98986403D01*
X172407372Y-98986401D01*
X172347844Y-98980000D01*
X171700000Y-98980000D01*
X171700000Y-99896988D01*
X171642993Y-99864075D01*
X171515826Y-99830000D01*
X171384174Y-99830000D01*
X171257007Y-99864075D01*
X171200000Y-99896988D01*
X171200000Y-98980000D01*
X170552155Y-98980000D01*
X170492627Y-98986401D01*
X170492620Y-98986403D01*
X170357913Y-99036645D01*
X170357906Y-99036649D01*
X170242812Y-99122809D01*
X170242809Y-99122812D01*
X170156649Y-99237906D01*
X170156645Y-99237913D01*
X170106403Y-99372620D01*
X170106401Y-99372627D01*
X170100000Y-99432155D01*
X170100000Y-100080000D01*
X171016988Y-100080000D01*
X170984075Y-100137007D01*
X170950000Y-100264174D01*
X170950000Y-100395826D01*
X170984075Y-100522993D01*
X171016988Y-100580000D01*
X170100000Y-100580000D01*
X170100000Y-101227844D01*
X170106401Y-101287372D01*
X170106403Y-101287379D01*
X170156645Y-101422086D01*
X170156649Y-101422093D01*
X170242809Y-101537187D01*
X170242812Y-101537190D01*
X170357906Y-101623350D01*
X170357913Y-101623354D01*
X170489470Y-101672422D01*
X170545404Y-101714293D01*
X170569821Y-101779758D01*
X170554969Y-101848031D01*
X170533819Y-101876285D01*
X170419889Y-101990215D01*
X170294951Y-102162179D01*
X170198444Y-102351585D01*
X170132753Y-102553760D01*
X170099500Y-102763713D01*
X170099500Y-102976286D01*
X170117078Y-103087273D01*
X170132754Y-103186243D01*
X170192835Y-103371153D01*
X170198444Y-103388414D01*
X170294951Y-103577820D01*
X170419890Y-103749786D01*
X170570213Y-103900109D01*
X170742182Y-104025050D01*
X170750946Y-104029516D01*
X170801742Y-104077491D01*
X170818536Y-104145312D01*
X170795998Y-104211447D01*
X170750946Y-104250484D01*
X170742182Y-104254949D01*
X170570213Y-104379890D01*
X170419890Y-104530213D01*
X170294951Y-104702179D01*
X170198444Y-104891585D01*
X170132753Y-105093760D01*
X170099500Y-105303713D01*
X170099500Y-105450903D01*
X170079815Y-105517942D01*
X170027011Y-105563697D01*
X169957853Y-105573641D01*
X169894297Y-105544616D01*
X169887819Y-105538584D01*
X167437590Y-103088355D01*
X167437588Y-103088352D01*
X167318717Y-102969481D01*
X167318716Y-102969480D01*
X167231904Y-102919360D01*
X167231904Y-102919359D01*
X167231900Y-102919358D01*
X167181785Y-102890423D01*
X167029057Y-102849499D01*
X166870943Y-102849499D01*
X166863347Y-102849499D01*
X166863331Y-102849500D01*
X163284500Y-102849500D01*
X163217461Y-102829815D01*
X163171706Y-102777011D01*
X163160500Y-102725500D01*
X163160500Y-100630096D01*
X163180185Y-100563057D01*
X163196814Y-100542420D01*
X167347819Y-96391414D01*
X167409142Y-96357930D01*
X167478834Y-96362914D01*
X167534767Y-96404786D01*
X167559184Y-96470250D01*
X167559500Y-96479096D01*
X167559500Y-96626286D01*
X167592753Y-96836239D01*
X167658444Y-97038414D01*
X167754951Y-97227820D01*
X167879890Y-97399786D01*
X168030213Y-97550109D01*
X168202179Y-97675048D01*
X168202181Y-97675049D01*
X168202184Y-97675051D01*
X168391588Y-97771557D01*
X168593757Y-97837246D01*
X168803713Y-97870500D01*
X168803714Y-97870500D01*
X169016286Y-97870500D01*
X169016287Y-97870500D01*
X169226243Y-97837246D01*
X169428412Y-97771557D01*
X169617816Y-97675051D01*
X169672572Y-97635269D01*
X169789786Y-97550109D01*
X169789788Y-97550106D01*
X169789792Y-97550104D01*
X169940104Y-97399792D01*
X169940106Y-97399788D01*
X169940109Y-97399786D01*
X170025890Y-97281717D01*
X170065051Y-97227816D01*
X170069793Y-97218508D01*
X170117763Y-97167711D01*
X170185583Y-97150911D01*
X170251719Y-97173445D01*
X170290763Y-97218500D01*
X170295373Y-97227547D01*
X170334728Y-97281716D01*
X170967037Y-96649408D01*
X170984075Y-96712993D01*
X171049901Y-96827007D01*
X171142993Y-96920099D01*
X171257007Y-96985925D01*
X171320590Y-97002962D01*
X170688282Y-97635269D01*
X170688282Y-97635270D01*
X170742449Y-97674624D01*
X170931782Y-97771095D01*
X171133870Y-97836757D01*
X171343754Y-97870000D01*
X171556246Y-97870000D01*
X171766127Y-97836757D01*
X171766130Y-97836757D01*
X171968217Y-97771095D01*
X172157554Y-97674622D01*
X172211716Y-97635270D01*
X172211717Y-97635270D01*
X171579408Y-97002962D01*
X171642993Y-96985925D01*
X171757007Y-96920099D01*
X171850099Y-96827007D01*
X171915925Y-96712993D01*
X171932962Y-96649408D01*
X172565270Y-97281717D01*
X172565270Y-97281716D01*
X172604622Y-97227554D01*
X172701095Y-97038217D01*
X172766757Y-96836130D01*
X172766757Y-96836127D01*
X172800000Y-96626246D01*
X172800000Y-96413753D01*
X172766757Y-96203872D01*
X172766757Y-96203869D01*
X172701095Y-96001782D01*
X172604624Y-95812449D01*
X172565270Y-95758282D01*
X172565269Y-95758282D01*
X171932962Y-96390590D01*
X171915925Y-96327007D01*
X171850099Y-96212993D01*
X171757007Y-96119901D01*
X171642993Y-96054075D01*
X171579409Y-96037037D01*
X172211716Y-95404728D01*
X172157547Y-95365373D01*
X172157547Y-95365372D01*
X172148500Y-95360763D01*
X172097706Y-95312788D01*
X172080912Y-95244966D01*
X172103451Y-95178832D01*
X172148508Y-95139793D01*
X172157816Y-95135051D01*
X172237007Y-95077515D01*
X172329786Y-95010109D01*
X172329788Y-95010106D01*
X172329792Y-95010104D01*
X172480104Y-94859792D01*
X172480106Y-94859788D01*
X172480109Y-94859786D01*
X172605048Y-94687820D01*
X172605047Y-94687820D01*
X172605051Y-94687816D01*
X172701557Y-94498412D01*
X172767246Y-94296243D01*
X172800500Y-94086287D01*
X172800500Y-93873713D01*
X172767246Y-93663757D01*
X172701557Y-93461588D01*
X172605051Y-93272184D01*
X172605049Y-93272181D01*
X172605048Y-93272179D01*
X172480109Y-93100213D01*
X172329786Y-92949890D01*
X172157820Y-92824951D01*
X172155643Y-92823842D01*
X172149054Y-92820485D01*
X172098259Y-92772512D01*
X172081463Y-92704692D01*
X172103999Y-92638556D01*
X172149054Y-92599515D01*
X172157816Y-92595051D01*
X172244138Y-92532335D01*
X172329786Y-92470109D01*
X172329788Y-92470106D01*
X172329792Y-92470104D01*
X172480104Y-92319792D01*
X172480106Y-92319788D01*
X172480109Y-92319786D01*
X172605048Y-92147820D01*
X172605047Y-92147820D01*
X172605051Y-92147816D01*
X172701557Y-91958412D01*
X172767246Y-91756243D01*
X172800500Y-91546287D01*
X172800500Y-91333713D01*
X172767246Y-91123757D01*
X172701557Y-90921588D01*
X172605051Y-90732184D01*
X172605049Y-90732181D01*
X172605048Y-90732179D01*
X172480109Y-90560213D01*
X172329786Y-90409890D01*
X172157820Y-90284951D01*
X171968414Y-90188444D01*
X171968413Y-90188443D01*
X171968412Y-90188443D01*
X171766243Y-90122754D01*
X171766241Y-90122753D01*
X171766240Y-90122753D01*
X171604957Y-90097208D01*
X171556287Y-90089500D01*
X171343713Y-90089500D01*
X171295042Y-90097208D01*
X171133760Y-90122753D01*
X170931585Y-90188444D01*
X170742179Y-90284951D01*
X170570215Y-90409889D01*
X170456673Y-90523431D01*
X170395350Y-90556915D01*
X170325658Y-90551931D01*
X170269725Y-90510059D01*
X170252810Y-90479082D01*
X170203797Y-90347671D01*
X170203793Y-90347664D01*
X170117547Y-90232455D01*
X170117544Y-90232452D01*
X170002335Y-90146206D01*
X170002328Y-90146202D01*
X169867482Y-90095908D01*
X169867483Y-90095908D01*
X169807883Y-90089501D01*
X169807881Y-90089500D01*
X169807873Y-90089500D01*
X169807864Y-90089500D01*
X168012129Y-90089500D01*
X168012123Y-90089501D01*
X167952516Y-90095908D01*
X167817671Y-90146202D01*
X167817664Y-90146206D01*
X167702455Y-90232452D01*
X167702452Y-90232455D01*
X167616206Y-90347664D01*
X167616201Y-90347673D01*
X167609279Y-90366233D01*
X167567408Y-90422166D01*
X167501943Y-90446582D01*
X167433670Y-90431730D01*
X167389996Y-90391789D01*
X167321789Y-90289711D01*
X167321786Y-90289707D01*
X167210292Y-90178213D01*
X167210288Y-90178210D01*
X167079185Y-90090609D01*
X167079172Y-90090602D01*
X166933501Y-90030264D01*
X166933489Y-90030261D01*
X166778845Y-89999500D01*
X166778842Y-89999500D01*
X166621158Y-89999500D01*
X166621155Y-89999500D01*
X166466510Y-90030261D01*
X166466498Y-90030264D01*
X166320827Y-90090602D01*
X166320814Y-90090609D01*
X166189125Y-90178602D01*
X166122447Y-90199480D01*
X166120234Y-90199500D01*
X155411957Y-90199500D01*
X155253842Y-90199500D01*
X155101115Y-90240423D01*
X155101114Y-90240423D01*
X155101112Y-90240424D01*
X155101109Y-90240425D01*
X155050996Y-90269359D01*
X155050995Y-90269360D01*
X155015753Y-90289707D01*
X154964185Y-90319479D01*
X154964182Y-90319481D01*
X149713792Y-95569871D01*
X149713786Y-95569879D01*
X149664534Y-95655188D01*
X149664534Y-95655189D01*
X149634734Y-95706804D01*
X149593810Y-95859532D01*
X149593810Y-95859534D01*
X149593810Y-96027635D01*
X149593811Y-96027648D01*
X149593811Y-98927478D01*
X149574126Y-98994517D01*
X149572913Y-98996369D01*
X149484920Y-99128058D01*
X149484913Y-99128071D01*
X149424575Y-99273742D01*
X149424572Y-99273754D01*
X149393811Y-99428397D01*
X149393811Y-99586090D01*
X149424572Y-99740733D01*
X149424575Y-99740745D01*
X149484913Y-99886416D01*
X149484920Y-99886429D01*
X149514677Y-99930963D01*
X149535555Y-99997641D01*
X149517070Y-100065021D01*
X149465092Y-100111711D01*
X149396122Y-100122887D01*
X149332058Y-100095001D01*
X149323894Y-100087535D01*
X148969779Y-99733420D01*
X148936294Y-99672097D01*
X148941278Y-99602405D01*
X148942876Y-99598342D01*
X148969737Y-99533497D01*
X149000500Y-99378842D01*
X149000500Y-99221158D01*
X149000500Y-99221155D01*
X149000499Y-99221153D01*
X148984127Y-99138846D01*
X148969737Y-99066503D01*
X148957370Y-99036645D01*
X148909397Y-98920827D01*
X148909390Y-98920814D01*
X148821789Y-98789711D01*
X148821786Y-98789707D01*
X148710292Y-98678213D01*
X148710288Y-98678210D01*
X148579185Y-98590609D01*
X148579172Y-98590602D01*
X148433501Y-98530264D01*
X148433489Y-98530261D01*
X148278845Y-98499500D01*
X148278842Y-98499500D01*
X148121158Y-98499500D01*
X148121155Y-98499500D01*
X147966510Y-98530261D01*
X147966498Y-98530264D01*
X147820827Y-98590602D01*
X147820811Y-98590611D01*
X147787700Y-98612735D01*
X147721023Y-98633612D01*
X147653643Y-98615127D01*
X147606953Y-98563147D01*
X147594811Y-98509632D01*
X147594811Y-94559765D01*
X147600138Y-94541621D01*
X147600476Y-94522712D01*
X147613976Y-94494494D01*
X147614496Y-94492726D01*
X147615709Y-94490874D01*
X147684527Y-94387881D01*
X147738139Y-94343076D01*
X147807464Y-94334369D01*
X147870492Y-94364524D01*
X147890731Y-94387881D01*
X147972521Y-94510288D01*
X147972524Y-94510292D01*
X148084018Y-94621786D01*
X148084022Y-94621789D01*
X148215125Y-94709390D01*
X148215138Y-94709397D01*
X148342835Y-94762290D01*
X148360814Y-94769737D01*
X148515464Y-94800499D01*
X148515467Y-94800500D01*
X148515469Y-94800500D01*
X148673155Y-94800500D01*
X148673156Y-94800499D01*
X148827808Y-94769737D01*
X148973490Y-94709394D01*
X149104600Y-94621789D01*
X149216100Y-94510289D01*
X149303705Y-94379179D01*
X149308954Y-94366508D01*
X149338056Y-94296247D01*
X149364048Y-94233497D01*
X149394811Y-94078842D01*
X149394811Y-93921158D01*
X149394811Y-93921155D01*
X149394810Y-93921153D01*
X149385381Y-93873753D01*
X149364048Y-93766503D01*
X149355762Y-93746498D01*
X149303708Y-93620827D01*
X149303701Y-93620814D01*
X149215709Y-93489125D01*
X149194831Y-93422447D01*
X149194811Y-93420234D01*
X149194811Y-91933371D01*
X149194812Y-91933358D01*
X149194812Y-91765255D01*
X149182939Y-91720945D01*
X149153888Y-91612527D01*
X149117500Y-91549500D01*
X149074835Y-91475601D01*
X149074829Y-91475593D01*
X148187590Y-90588355D01*
X148187588Y-90588352D01*
X148068717Y-90469481D01*
X148068712Y-90469477D01*
X147965513Y-90409896D01*
X147965512Y-90409895D01*
X147931790Y-90390425D01*
X147931789Y-90390424D01*
X147919263Y-90387067D01*
X147779057Y-90349499D01*
X147620943Y-90349499D01*
X147613347Y-90349499D01*
X147613331Y-90349500D01*
X142924424Y-90349500D01*
X142857385Y-90329815D01*
X142811630Y-90277011D01*
X142801686Y-90207853D01*
X142809863Y-90178048D01*
X142869735Y-90033501D01*
X142869737Y-90033497D01*
X142900500Y-89878842D01*
X142900500Y-89721158D01*
X142900500Y-89721155D01*
X142900499Y-89721153D01*
X142869738Y-89566510D01*
X142869737Y-89566503D01*
X142813728Y-89431284D01*
X142809397Y-89420827D01*
X142809390Y-89420814D01*
X142721789Y-89289711D01*
X142721786Y-89289707D01*
X142610292Y-89178213D01*
X142610288Y-89178210D01*
X142479185Y-89090609D01*
X142479172Y-89090602D01*
X142333501Y-89030264D01*
X142333489Y-89030261D01*
X142178845Y-88999500D01*
X142178842Y-88999500D01*
X142021158Y-88999500D01*
X142021155Y-88999500D01*
X141866510Y-89030261D01*
X141866498Y-89030264D01*
X141720827Y-89090602D01*
X141720814Y-89090609D01*
X141589125Y-89178602D01*
X141522447Y-89199480D01*
X141520234Y-89199500D01*
X136679057Y-89199500D01*
X136520942Y-89199500D01*
X136368215Y-89240423D01*
X136368214Y-89240423D01*
X136368212Y-89240424D01*
X136368209Y-89240425D01*
X136318096Y-89269359D01*
X136318095Y-89269360D01*
X136282853Y-89289707D01*
X136231285Y-89319479D01*
X136231282Y-89319481D01*
X135685339Y-89865425D01*
X135624016Y-89898910D01*
X135621850Y-89899361D01*
X135466508Y-89930261D01*
X135466498Y-89930264D01*
X135320827Y-89990602D01*
X135320814Y-89990609D01*
X135189711Y-90078210D01*
X135189707Y-90078213D01*
X135078213Y-90189707D01*
X135078210Y-90189711D01*
X134990609Y-90320814D01*
X134990602Y-90320827D01*
X134930264Y-90466498D01*
X134930261Y-90466510D01*
X134899500Y-90621153D01*
X134899500Y-90778846D01*
X134930261Y-90933489D01*
X134930264Y-90933501D01*
X134990602Y-91079172D01*
X134990609Y-91079185D01*
X135078210Y-91210288D01*
X135078213Y-91210292D01*
X135189708Y-91321787D01*
X135190621Y-91322397D01*
X135190991Y-91322839D01*
X135194419Y-91325653D01*
X135193885Y-91326303D01*
X135235427Y-91376010D01*
X135244134Y-91445334D01*
X135213980Y-91508362D01*
X135154537Y-91545082D01*
X135121731Y-91549500D01*
X131524057Y-91549500D01*
X131365943Y-91549500D01*
X131213215Y-91590423D01*
X131213214Y-91590423D01*
X131213212Y-91590424D01*
X131213209Y-91590425D01*
X131174931Y-91612526D01*
X131174929Y-91612527D01*
X131076290Y-91669475D01*
X131076282Y-91669481D01*
X130964480Y-91781283D01*
X130964480Y-91781284D01*
X130964478Y-91781286D01*
X130892382Y-91853382D01*
X130835337Y-91910427D01*
X130774014Y-91943911D01*
X130771848Y-91944362D01*
X130616508Y-91975261D01*
X130616498Y-91975264D01*
X130470827Y-92035602D01*
X130470814Y-92035609D01*
X130339711Y-92123210D01*
X130339707Y-92123213D01*
X130228213Y-92234707D01*
X130228210Y-92234711D01*
X130140609Y-92365814D01*
X130140602Y-92365827D01*
X130080264Y-92511498D01*
X130080261Y-92511510D01*
X130049500Y-92666153D01*
X129452690Y-92666153D01*
X129477546Y-92647546D01*
X129563796Y-92532331D01*
X129614091Y-92397483D01*
X129620500Y-92337873D01*
X129620499Y-90542128D01*
X129614091Y-90482517D01*
X129610537Y-90472989D01*
X129563797Y-90347671D01*
X129563793Y-90347664D01*
X129477547Y-90232455D01*
X129477544Y-90232452D01*
X129362335Y-90146206D01*
X129362328Y-90146202D01*
X129227482Y-90095908D01*
X129227483Y-90095908D01*
X129167883Y-90089501D01*
X129167881Y-90089500D01*
X129167873Y-90089500D01*
X129167864Y-90089500D01*
X127372129Y-90089500D01*
X127372123Y-90089501D01*
X127312516Y-90095908D01*
X127177671Y-90146202D01*
X127177664Y-90146206D01*
X127062455Y-90232452D01*
X127062452Y-90232455D01*
X126976206Y-90347664D01*
X126976202Y-90347671D01*
X126925908Y-90482517D01*
X126921510Y-90523431D01*
X126919501Y-90542123D01*
X126919500Y-90542135D01*
X126000500Y-90542135D01*
X126000500Y-88521153D01*
X154599500Y-88521153D01*
X154599500Y-88678846D01*
X154630261Y-88833489D01*
X154630264Y-88833501D01*
X154690602Y-88979172D01*
X154690609Y-88979185D01*
X154778210Y-89110288D01*
X154778213Y-89110292D01*
X154889707Y-89221786D01*
X154889711Y-89221789D01*
X155020814Y-89309390D01*
X155020827Y-89309397D01*
X155166498Y-89369735D01*
X155166503Y-89369737D01*
X155321153Y-89400499D01*
X155321156Y-89400500D01*
X155321158Y-89400500D01*
X155478844Y-89400500D01*
X155478845Y-89400499D01*
X155633497Y-89369737D01*
X155754829Y-89319480D01*
X155779172Y-89309397D01*
X155779172Y-89309396D01*
X155779179Y-89309394D01*
X155839096Y-89269359D01*
X155910875Y-89221398D01*
X155977553Y-89200520D01*
X155979766Y-89200500D01*
X163894599Y-89200500D01*
X163961638Y-89220185D01*
X163963490Y-89221398D01*
X164095179Y-89309390D01*
X164095192Y-89309397D01*
X164240863Y-89369735D01*
X164240868Y-89369737D01*
X164395518Y-89400499D01*
X164395521Y-89400500D01*
X164395523Y-89400500D01*
X164553209Y-89400500D01*
X164553210Y-89400499D01*
X164707862Y-89369737D01*
X164829194Y-89319480D01*
X164853537Y-89309397D01*
X164853537Y-89309396D01*
X164853544Y-89309394D01*
X164984654Y-89221789D01*
X165096154Y-89110289D01*
X165183759Y-88979179D01*
X165244102Y-88833497D01*
X165274865Y-88678842D01*
X165274865Y-88521158D01*
X165274865Y-88521155D01*
X165274864Y-88521153D01*
X165244103Y-88366510D01*
X165244102Y-88366503D01*
X165244100Y-88366498D01*
X165183762Y-88220827D01*
X165183755Y-88220814D01*
X165096154Y-88089711D01*
X165096151Y-88089707D01*
X164984657Y-87978213D01*
X164984653Y-87978210D01*
X164853550Y-87890609D01*
X164853537Y-87890602D01*
X164707866Y-87830264D01*
X164707854Y-87830261D01*
X164553210Y-87799500D01*
X164553207Y-87799500D01*
X164395523Y-87799500D01*
X164395520Y-87799500D01*
X164240875Y-87830261D01*
X164240863Y-87830264D01*
X164095192Y-87890602D01*
X164095179Y-87890609D01*
X163963490Y-87978602D01*
X163896812Y-87999480D01*
X163894599Y-87999500D01*
X161015845Y-87999500D01*
X160948806Y-87979815D01*
X160903051Y-87927011D01*
X160893107Y-87857853D01*
X160901284Y-87828048D01*
X160919735Y-87783501D01*
X160919737Y-87783497D01*
X160950500Y-87628842D01*
X160950500Y-87471158D01*
X160950500Y-87471155D01*
X160950499Y-87471153D01*
X160919738Y-87316510D01*
X160919737Y-87316503D01*
X160900812Y-87270814D01*
X160859397Y-87170827D01*
X160859390Y-87170814D01*
X160771789Y-87039711D01*
X160771786Y-87039707D01*
X160660292Y-86928213D01*
X160660288Y-86928210D01*
X160529185Y-86840609D01*
X160529172Y-86840602D01*
X160383501Y-86780264D01*
X160383489Y-86780261D01*
X160228845Y-86749500D01*
X160228842Y-86749500D01*
X160071158Y-86749500D01*
X160071155Y-86749500D01*
X159916510Y-86780261D01*
X159916498Y-86780264D01*
X159770827Y-86840602D01*
X159770814Y-86840609D01*
X159639711Y-86928210D01*
X159639707Y-86928213D01*
X159604742Y-86963180D01*
X159543420Y-86996666D01*
X159517060Y-86999500D01*
X155954935Y-86999500D01*
X155887896Y-86979815D01*
X155886090Y-86978633D01*
X155829179Y-86940606D01*
X155829172Y-86940602D01*
X155683501Y-86880264D01*
X155683489Y-86880261D01*
X155528845Y-86849500D01*
X155528842Y-86849500D01*
X155371158Y-86849500D01*
X155371155Y-86849500D01*
X155216510Y-86880261D01*
X155216498Y-86880264D01*
X155070827Y-86940602D01*
X155070814Y-86940609D01*
X154939711Y-87028210D01*
X154939707Y-87028213D01*
X154828213Y-87139707D01*
X154828210Y-87139711D01*
X154740609Y-87270814D01*
X154740602Y-87270827D01*
X154680264Y-87416498D01*
X154680261Y-87416510D01*
X154649500Y-87571153D01*
X154649500Y-87728846D01*
X154680261Y-87883489D01*
X154680264Y-87883501D01*
X154742937Y-88034808D01*
X154741674Y-88035330D01*
X154754500Y-88096931D01*
X154734002Y-88155873D01*
X154690609Y-88220814D01*
X154690602Y-88220827D01*
X154630264Y-88366498D01*
X154630261Y-88366510D01*
X154599500Y-88521153D01*
X126000500Y-88521153D01*
X126000500Y-84987648D01*
X126969500Y-84987648D01*
X126969500Y-85192351D01*
X127001522Y-85394534D01*
X127064781Y-85589223D01*
X127157715Y-85771613D01*
X127278028Y-85937213D01*
X127422786Y-86081971D01*
X127577749Y-86194556D01*
X127588390Y-86202287D01*
X127704607Y-86261503D01*
X127770776Y-86295218D01*
X127770778Y-86295218D01*
X127770781Y-86295220D01*
X127875137Y-86329127D01*
X127965465Y-86358477D01*
X128066557Y-86374488D01*
X128167648Y-86390500D01*
X128167649Y-86390500D01*
X128372351Y-86390500D01*
X128372352Y-86390500D01*
X128574534Y-86358477D01*
X128769219Y-86295220D01*
X128951610Y-86202287D01*
X129044590Y-86134732D01*
X129117213Y-86081971D01*
X129117215Y-86081968D01*
X129117219Y-86081966D01*
X129261966Y-85937219D01*
X129261968Y-85937215D01*
X129261971Y-85937213D01*
X129314732Y-85864590D01*
X129382287Y-85771610D01*
X129475220Y-85589219D01*
X129538477Y-85394534D01*
X129570500Y-85192352D01*
X129570500Y-84987648D01*
X170149500Y-84987648D01*
X170149500Y-85192351D01*
X170181522Y-85394534D01*
X170244781Y-85589223D01*
X170337715Y-85771613D01*
X170458028Y-85937213D01*
X170602786Y-86081971D01*
X170757749Y-86194556D01*
X170768390Y-86202287D01*
X170884607Y-86261503D01*
X170950776Y-86295218D01*
X170950778Y-86295218D01*
X170950781Y-86295220D01*
X171055137Y-86329127D01*
X171145465Y-86358477D01*
X171246557Y-86374488D01*
X171347648Y-86390500D01*
X171347649Y-86390500D01*
X171552351Y-86390500D01*
X171552352Y-86390500D01*
X171754534Y-86358477D01*
X171949219Y-86295220D01*
X172131610Y-86202287D01*
X172224590Y-86134732D01*
X172297213Y-86081971D01*
X172297215Y-86081968D01*
X172297219Y-86081966D01*
X172441966Y-85937219D01*
X172441968Y-85937215D01*
X172441971Y-85937213D01*
X172494732Y-85864590D01*
X172562287Y-85771610D01*
X172655220Y-85589219D01*
X172718477Y-85394534D01*
X172750500Y-85192352D01*
X172750500Y-84987648D01*
X172718477Y-84785466D01*
X172655220Y-84590781D01*
X172655218Y-84590778D01*
X172655218Y-84590776D01*
X172621503Y-84524607D01*
X172562287Y-84408390D01*
X172554556Y-84397749D01*
X172441971Y-84242786D01*
X172297213Y-84098028D01*
X172131613Y-83977715D01*
X172131612Y-83977714D01*
X172131610Y-83977713D01*
X172074653Y-83948691D01*
X171949223Y-83884781D01*
X171754534Y-83821522D01*
X171579995Y-83793878D01*
X171552352Y-83789500D01*
X171347648Y-83789500D01*
X171323329Y-83793351D01*
X171145465Y-83821522D01*
X170950776Y-83884781D01*
X170768386Y-83977715D01*
X170602786Y-84098028D01*
X170458028Y-84242786D01*
X170337715Y-84408386D01*
X170244781Y-84590776D01*
X170181522Y-84785465D01*
X170149500Y-84987648D01*
X129570500Y-84987648D01*
X129538477Y-84785466D01*
X129475220Y-84590781D01*
X129475218Y-84590778D01*
X129475218Y-84590776D01*
X129441503Y-84524607D01*
X129382287Y-84408390D01*
X129374556Y-84397749D01*
X129261971Y-84242786D01*
X129117213Y-84098028D01*
X128951613Y-83977715D01*
X128951612Y-83977714D01*
X128951610Y-83977713D01*
X128894653Y-83948691D01*
X128769223Y-83884781D01*
X128574534Y-83821522D01*
X128399995Y-83793878D01*
X128372352Y-83789500D01*
X128167648Y-83789500D01*
X128143329Y-83793351D01*
X127965465Y-83821522D01*
X127770776Y-83884781D01*
X127588386Y-83977715D01*
X127422786Y-84098028D01*
X127278028Y-84242786D01*
X127157715Y-84408386D01*
X127064781Y-84590776D01*
X127001522Y-84785465D01*
X126969500Y-84987648D01*
X126000500Y-84987648D01*
X126000500Y-83506961D01*
X126001280Y-83493077D01*
X126001280Y-83493076D01*
X126011460Y-83402729D01*
X126017635Y-83375670D01*
X126045353Y-83296456D01*
X126057396Y-83271450D01*
X126102046Y-83200389D01*
X126119351Y-83178690D01*
X126178690Y-83119351D01*
X126200389Y-83102046D01*
X126271450Y-83057396D01*
X126296456Y-83045353D01*
X126375670Y-83017635D01*
X126402733Y-83011459D01*
X126465419Y-83004396D01*
X126493079Y-83001280D01*
X126506962Y-83000500D01*
X126565892Y-83000500D01*
X172934108Y-83000500D01*
X172993038Y-83000500D01*
X173006922Y-83001280D01*
G37*
%TD.AperFunction*%
%TD*%
M02*
